<svg xmlns="http://www.w3.org/2000/svg" viewBox="0 0 359.9 539.9"><defs><style>.cls-1{fill:#fff;stroke:#000;}.cls-2{fill:#f55;}</style></defs><g id="Layer_2" data-name="Layer 2"><g id="svg2"><g id="g3042"><path id="rect6472-03" class="cls-1" d="M30.4.5H329.5a29.92,29.92,0,0,1,29.9,29.9V509.5a29.92,29.92,0,0,1-29.9,29.9H30.4A29.92,29.92,0,0,1,.5,509.5V30.4A29.92,29.92,0,0,1,30.4.5Z"/><path id="rect3163-5-1-4-3-4-0-8" class="cls-2" d="M30,30A10,10,0,0,0,20,40v5h5V40a5,5,0,0,1,10,0v5a5,5,0,0,1-5,5H25v5h5a5,5,0,0,1,5,5V70a5,5,0,0,1-10,0V65H20v5a10,10,0,0,0,20,0V60a9.83,9.83,0,0,0-3.4-7.5A9.83,9.83,0,0,0,40,45V40A10,10,0,0,0,30,30Z"/><path id="rect3163-5-1-4-3-4-0-4-2" class="cls-2" d="M330,510a10,10,0,0,0,10-10v-5h-5v5a5,5,0,0,1-10,0v-5a5,5,0,0,1,5-5h5v-5h-5a5,5,0,0,1-5-5V470a5,5,0,0,1,10,0v5h5v-5a10,10,0,0,0-20,0v10a9.83,9.83,0,0,0,3.4,7.5A9.83,9.83,0,0,0,320,495v5a10,10,0,0,0,10,10Z"/><path id="path3204-24-1-52" class="cls-2" d="M30,90a74.45,74.45,0,0,0,6.5,12.5,88.5,88.5,0,0,0,8.5,10,88.5,88.5,0,0,0-8.5,10A74.45,74.45,0,0,0,30,135a74.45,74.45,0,0,0-6.5-12.5,88.5,88.5,0,0,0-8.5-10,88.5,88.5,0,0,0,8.5-10A74.45,74.45,0,0,0,30,90"/><path id="path3204-24-1-1-0" class="cls-2" d="M330,405a74.45,74.45,0,0,0,6.5,12.5,88.5,88.5,0,0,0,8.5,10,88.5,88.5,0,0,0-8.5,10A74.45,74.45,0,0,0,330,450a74.45,74.45,0,0,0-6.5-12.5,88.5,88.5,0,0,0-8.5-10,88.5,88.5,0,0,0,8.5-10A74.45,74.45,0,0,0,330,405"/><path id="path3204-24-4-3" class="cls-2" d="M180,45s6,15,13,25a177,177,0,0,0,17,20,177,177,0,0,0-17,20c-7,10-13,25-13,25s-6-15-13-25a177,177,0,0,0-17-20,177,177,0,0,0,17-20c7-10,13-25,13-25"/><path id="path3204-24-72" class="cls-2" d="M180,225s6,15,13,25a177,177,0,0,0,17,20,177,177,0,0,0-17,20c-7,10-13,25-13,25s-6-15-13-25a177,177,0,0,0-17-20,177,177,0,0,0,17-20c7-10,13-25,13-25"/><path id="path3204-24-0-97" class="cls-2" d="M180,405s6,15,13,25a177,177,0,0,0,17,20,177,177,0,0,0-17,20c-7,10-13,25-13,25s-6-15-13-25a177,177,0,0,0-17-20,177,177,0,0,0,17-20c7-10,13-25,13-25"/></g></g></g></svg>