<svg xmlns="http://www.w3.org/2000/svg" viewBox="0 0 359.9 539.9"><defs><style>.cls-1{fill:#fff;stroke:#000;}.cls-2{fill:#f55;}</style></defs><g id="Layer_2" data-name="Layer 2"><g id="svg2"><g id="g3044"><path id="rect6472-33" class="cls-1" d="M30.4.5H329.5a29.92,29.92,0,0,1,29.9,29.9V509.5a29.92,29.92,0,0,1-29.9,29.9H30.4A29.92,29.92,0,0,1,.5,509.5V30.4A29.92,29.92,0,0,1,30.4.5Z"/><path id="rect3980-7-6-2-9-9" class="cls-2" d="M30,30,20,65v5H32V80h5V70h3V65H37V50H32V65H25.2l10-35Z"/><path id="rect3980-7-6-2-9-9-8" class="cls-2" d="M330,510l10-35v-5H328V460h-5v10h-3v5h3v15h5V475h6.8l-10,35Z"/><path id="path3204-24-55" class="cls-2" d="M90,45s6,15,13,25a177,177,0,0,0,17,20,177,177,0,0,0-17,20c-7,10-13,25-13,25s-6-15-13-25A177,177,0,0,0,60,90,177,177,0,0,0,77,70c7-10,13-25,13-25"/><path id="path3204-24-1-32" class="cls-2" d="M270,45s6,15,13,25a177,177,0,0,0,17,20,177,177,0,0,0-17,20c-7,10-13,25-13,25s-6-15-13-25a177,177,0,0,0-17-20,177,177,0,0,0,17-20c7-10,13-25,13-25"/><path id="path3204-24-7-8" class="cls-2" d="M90,405s6,15,13,25a177,177,0,0,0,17,20,177,177,0,0,0-17,20c-7,10-13,25-13,25s-6-15-13-25a177,177,0,0,0-17-20,177,177,0,0,0,17-20c7-10,13-25,13-25"/><path id="path3204-24-4-25" class="cls-2" d="M270,405s6,15,13,25a177,177,0,0,0,17,20,177,177,0,0,0-17,20c-7,10-13,25-13,25s-6-15-13-25a177,177,0,0,0-17-20,177,177,0,0,0,17-20c7-10,13-25,13-25"/><path id="path3204-24-1-0-3" class="cls-2" d="M30,90a74.45,74.45,0,0,0,6.5,12.5,88.5,88.5,0,0,0,8.5,10,88.5,88.5,0,0,0-8.5,10A74.45,74.45,0,0,0,30,135a74.45,74.45,0,0,0-6.5-12.5,88.5,88.5,0,0,0-8.5-10,88.5,88.5,0,0,0,8.5-10A74.45,74.45,0,0,0,30,90"/><path id="path3204-24-1-9-6" class="cls-2" d="M330,405a74.45,74.45,0,0,0,6.5,12.5,88.5,88.5,0,0,0,8.5,10,88.5,88.5,0,0,0-8.5,10A74.45,74.45,0,0,0,330,450a74.45,74.45,0,0,0-6.5-12.5,88.5,88.5,0,0,0-8.5-10,88.5,88.5,0,0,0,8.5-10A74.45,74.45,0,0,0,330,405"/></g></g></g></svg>