<svg xmlns="http://www.w3.org/2000/svg" viewBox="0 0 359.9 539.9"><defs><style>.cls-1{fill:#fff;stroke:#000;}.cls-2{fill:#f55;}</style></defs><g id="Layer_2" data-name="Layer 2"><g id="svg2"><g id="g3015"><path id="rect6472-4" class="cls-1" d="M30.4.5H329.5a29.92,29.92,0,0,1,29.9,29.9V509.5a29.92,29.92,0,0,1-29.9,29.9H30.4A29.92,29.92,0,0,1,.5,509.5V30.4A29.92,29.92,0,0,1,30.4.5Z"/><path id="rect3163-7-1-7-3-1" class="cls-2" d="M30,30A10,10,0,0,0,20,40V70a10,10,0,0,0,20,0V60A10,10,0,0,0,30,50a10.63,10.63,0,0,0-5,1.3V40a5,5,0,0,1,10,0v1h5V40A10,10,0,0,0,30,30Zm0,25a5,5,0,0,1,5,5V70a5,5,0,0,1-10,0V60A5,5,0,0,1,30,55Z"/><path id="rect3163-7-1-7-3-1-9" class="cls-2" d="M330,510a10,10,0,0,0,10-10V470a10,10,0,0,0-20,0v10a10,10,0,0,0,10,10,10.63,10.63,0,0,0,5-1.3V500a5,5,0,0,1-10,0v-1h-5v1A10,10,0,0,0,330,510Zm0-25a5,5,0,0,1-5-5V470a5,5,0,0,1,10,0v10A5,5,0,0,1,330,485Z"/><path id="path3204-24-1-9" class="cls-2" d="M90,45s6,15,13,25a177,177,0,0,0,17,20,177,177,0,0,0-17,20c-7,10-13,25-13,25s-6-15-13-25A177,177,0,0,0,60,90,177,177,0,0,0,77,70c7-10,13-25,13-25"/><path id="path3204-24-7-9" class="cls-2" d="M270,45s6,15,13,25a177,177,0,0,0,17,20,177,177,0,0,0-17,20c-7,10-13,25-13,25s-6-15-13-25a177,177,0,0,0-17-20,177,177,0,0,0,17-20c7-10,13-25,13-25"/><path id="path3204-24-25" class="cls-2" d="M90,225s6,15,13,25a177,177,0,0,0,17,20,177,177,0,0,0-17,20c-7,10-13,25-13,25s-6-15-13-25a177,177,0,0,0-17-20,177,177,0,0,0,17-20c7-10,13-25,13-25"/><path id="path3204-24-4-5" class="cls-2" d="M270,225s6,15,13,25a177,177,0,0,0,17,20,177,177,0,0,0-17,20c-7,10-13,25-13,25s-6-15-13-25a177,177,0,0,0-17-20,177,177,0,0,0,17-20c7-10,13-25,13-25"/><path id="path3204-24-0-3" class="cls-2" d="M90,405s6,15,13,25a177,177,0,0,0,17,20,177,177,0,0,0-17,20c-7,10-13,25-13,25s-6-15-13-25a177,177,0,0,0-17-20,177,177,0,0,0,17-20c7-10,13-25,13-25"/><path id="path3204-24-9-33" class="cls-2" d="M270,405s6,15,13,25a177,177,0,0,0,17,20,177,177,0,0,0-17,20c-7,10-13,25-13,25s-6-15-13-25a177,177,0,0,0-17-20,177,177,0,0,0,17-20c7-10,13-25,13-25"/><path id="path3204-24-1-4-7" class="cls-2" d="M30,90a74.45,74.45,0,0,0,6.5,12.5,88.5,88.5,0,0,0,8.5,10,88.5,88.5,0,0,0-8.5,10A74.45,74.45,0,0,0,30,135a74.45,74.45,0,0,0-6.5-12.5,88.5,88.5,0,0,0-8.5-10,88.5,88.5,0,0,0,8.5-10A74.45,74.45,0,0,0,30,90"/><path id="path3204-24-1-8-4" class="cls-2" d="M330,405a74.45,74.45,0,0,0,6.5,12.5,88.5,88.5,0,0,0,8.5,10,88.5,88.5,0,0,0-8.5,10A74.45,74.45,0,0,0,330,450a74.45,74.45,0,0,0-6.5-12.5,88.5,88.5,0,0,0-8.5-10,88.5,88.5,0,0,0,8.5-10A74.45,74.45,0,0,0,330,405"/></g></g></g></svg>