<svg xmlns="http://www.w3.org/2000/svg" viewBox="0 0 359.9 539.9"><defs><style>.cls-1{fill:#fff;stroke:#000;}.cls-2{fill:#f55;}</style></defs><g id="Layer_2" data-name="Layer 2"><g id="svg2"><g id="g3092"><path id="rect6472-39" class="cls-1" d="M30.4.5H329.5a29.92,29.92,0,0,1,29.9,29.9V509.5a29.92,29.92,0,0,1-29.9,29.9H30.4A29.92,29.92,0,0,1,.5,509.5V30.4A29.92,29.92,0,0,1,30.4.5Z"/><path id="rect3980-2-1-93-8" class="cls-2" d="M20,30V40h5V35H35L25,80h5L40,35V30Z"/><path id="rect3980-2-1-93-0-80" class="cls-2" d="M340,510V500h-5v5H325l10-45h-5l-10,45v5Z"/><path id="path3204-24-1-8" class="cls-2" d="M30,90a74.45,74.45,0,0,0,6.5,12.5,88.5,88.5,0,0,0,8.5,10,88.5,88.5,0,0,0-8.5,10A74.45,74.45,0,0,0,30,135a74.45,74.45,0,0,0-6.5-12.5,88.5,88.5,0,0,0-8.5-10,88.5,88.5,0,0,0,8.5-10A74.45,74.45,0,0,0,30,90"/><path id="path3204-24-1-1-7" class="cls-2" d="M330,405a74.45,74.45,0,0,0,6.5,12.5,88.5,88.5,0,0,0,8.5,10,88.5,88.5,0,0,0-8.5,10A74.45,74.45,0,0,0,330,450a74.45,74.45,0,0,0-6.5-12.5,88.5,88.5,0,0,0-8.5-10,88.5,88.5,0,0,0,8.5-10A74.45,74.45,0,0,0,330,405"/><path id="path3204-24-9-7" class="cls-2" d="M90,45s6,15,13,25a177,177,0,0,0,17,20,177,177,0,0,0-17,20c-7,10-13,25-13,25s-6-15-13-25A177,177,0,0,0,60,90,177,177,0,0,0,77,70c7-10,13-25,13-25"/><path id="path3204-24-4-83" class="cls-2" d="M270,45s6,15,13,25a177,177,0,0,0,17,20,177,177,0,0,0-17,20c-7,10-13,25-13,25s-6-15-13-25a177,177,0,0,0-17-20,177,177,0,0,0,17-20c7-10,13-25,13-25"/><path id="path3204-24-8-8" class="cls-2" d="M180,135s6,15,13,25a177,177,0,0,0,17,20,177,177,0,0,0-17,20c-7,10-13,25-13,25s-6-15-13-25a177,177,0,0,0-17-20,177,177,0,0,0,17-20c7-10,13-25,13-25"/><path id="path3204-24-37" class="cls-2" d="M90,225s6,15,13,25a177,177,0,0,0,17,20,177,177,0,0,0-17,20c-7,10-13,25-13,25s-6-15-13-25a177,177,0,0,0-17-20,177,177,0,0,0,17-20c7-10,13-25,13-25"/><path id="path3204-24-82" class="cls-2" d="M270,225s6,15,13,25a177,177,0,0,0,17,20,177,177,0,0,0-17,20c-7,10-13,25-13,25s-6-15-13-25a177,177,0,0,0-17-20,177,177,0,0,0,17-20c7-10,13-25,13-25"/><path id="path3204-24-45-1" class="cls-2" d="M90,405s6,15,13,25a177,177,0,0,0,17,20,177,177,0,0,0-17,20c-7,10-13,25-13,25s-6-15-13-25a177,177,0,0,0-17-20,177,177,0,0,0,17-20c7-10,13-25,13-25"/><path id="path3204-24-5" class="cls-2" d="M270,405s6,15,13,25a177,177,0,0,0,17,20,177,177,0,0,0-17,20c-7,10-13,25-13,25s-6-15-13-25a177,177,0,0,0-17-20,177,177,0,0,0,17-20c7-10,13-25,13-25"/></g></g></g></svg>