<svg xmlns="http://www.w3.org/2000/svg" viewBox="0 0 359.9 539.9"><defs><style>.cls-1{fill:#fff;stroke:#000;}.cls-2{fill:#f55;}</style></defs><g id="Layer_2" data-name="Layer 2"><g id="svg2"><g id="g3197"><path id="rect6472-38" class="cls-1" d="M30.4.5H329.5a29.92,29.92,0,0,1,29.9,29.9V509.5a29.92,29.92,0,0,1-29.9,29.9H30.4A29.92,29.92,0,0,1,.5,509.5V30.4A29.92,29.92,0,0,1,30.4.5Z"/><path id="path3204-24-49" class="cls-2" d="M180,225s6,15,13,25a177,177,0,0,0,17,20,177,177,0,0,0-17,20c-7,10-13,25-13,25s-6-15-13-25a177,177,0,0,0-17-20,177,177,0,0,0,17-20c7-10,13-25,13-25"/><path id="path3497-2" class="cls-2" d="M27.5,30l-9,50h5l2.3-13h8.3l2.3,13h5l-9-50ZM30,43.9,33.2,62H26.7Z"/><path id="path3497-5-6" class="cls-2" d="M327.5,510l-9-50h5l2.3,13h8.3l2.3-13h5l-9,50Zm2.5-13.9,3.2-18.1h-6.5l3.3,18.1Z"/><path id="path3204-24-1-57" class="cls-2" d="M30,90a74.45,74.45,0,0,0,6.5,12.5,88.5,88.5,0,0,0,8.5,10,88.5,88.5,0,0,0-8.5,10A74.45,74.45,0,0,0,30,135a74.45,74.45,0,0,0-6.5-12.5,88.5,88.5,0,0,0-8.5-10,88.5,88.5,0,0,0,8.5-10A74.45,74.45,0,0,0,30,90"/><path id="path3204-24-1-7" class="cls-2" d="M330,405a74.45,74.45,0,0,0,6.5,12.5,88.5,88.5,0,0,0,8.5,10,88.5,88.5,0,0,0-8.5,10A74.45,74.45,0,0,0,330,450a74.45,74.45,0,0,0-6.5-12.5,88.5,88.5,0,0,0-8.5-10,88.5,88.5,0,0,0,8.5-10A74.45,74.45,0,0,0,330,405"/></g></g></g></svg>