<svg xmlns="http://www.w3.org/2000/svg" viewBox="0 0 359.9 539.9"><defs><style>.cls-1{fill:#fff;stroke:#000;}.cls-2{fill:#f55;}</style></defs><g id="Layer_2" data-name="Layer 2"><g id="svg2"><g id="g3053"><path id="rect6472-58" class="cls-1" d="M30.4.5H329.5a29.92,29.92,0,0,1,29.9,29.9V509.5a29.92,29.92,0,0,1-29.9,29.9H30.4A29.92,29.92,0,0,1,.5,509.5V30.4A29.92,29.92,0,0,1,30.4.5Z"/><path id="path3126-1-6" class="cls-2" d="M179,245c0-11-5.7-20-14-20s-15,9-15,20v2.8c0,7.3,2.7,14.4,5,21,2.4,6.8,5.8,12.8,9.1,18.9,5,9.4,15.9,27.3,15.9,27.3s10.9-17.9,15.9-27.3c3.2-6.1,6.7-12.1,9.1-18.9,2.3-6.6,5-13.7,5-21V245c0-11-6.7-20-15-20s-14,9-14,20Z"/><path id="rect3163-6-0-0-2" class="cls-2" d="M20,30V50H30a5,5,0,0,1,5,5V70a5,5,0,0,1-10,0V65H20v5a10,10,0,0,0,20,0V55A10,10,0,0,0,30,45H25V35H40V30H20Z"/><path id="rect3163-6-0-0-2-4" class="cls-2" d="M340,510V490H330a5,5,0,0,1-5-5V470a5,5,0,0,1,10,0v5h5v-5a10,10,0,0,0-20,0v15a10,10,0,0,0,10,10h5v10H320v5h20Z"/><path id="path3126-2" class="cls-2" d="M89,63c0-11-5.7-18-14-18S60,54,60,65v2.8c0,7.3,2.7,14.4,5,21,2.4,6.8,5.8,12.8,9.1,18.9C79.1,117.1,90,135,90,135s10.9-17.9,15.9-27.3c3.2-6.1,6.7-12.1,9.1-18.9,2.3-6.6,5-13.7,5-21V65c0-11-6.7-20-15-20S91,52,91,63C91,65,89,65,89,63Z"/><path id="path3126-17-6" class="cls-2" d="M269,63c0-11-5.7-18-14-18s-15,9-15,20v2.8c0,7.3,2.7,14.4,5,21,2.4,6.8,5.8,12.8,9.1,18.9,5,9.4,15.9,27.3,15.9,27.3s10.9-17.9,15.9-27.3c3.2-6.1,6.7-12.1,9.1-18.9,2.3-6.6,5-13.7,5-21V65c0-11-6.7-20-15-20s-14,7-14,18C271,65,269,65,269,63Z"/><path id="path3126-4-5" class="cls-2" d="M179,243c0-11-5.7-18-14-18s-15,9-15,20v2.8c0,7.3,2.7,14.4,5,21,2.4,6.8,5.8,12.8,9.1,18.9,5,9.4,15.9,27.3,15.9,27.3s10.9-17.9,15.9-27.3c3.2-6.1,6.7-12.1,9.1-18.9,2.3-6.6,5-13.7,5-21V245c0-11-6.7-20-15-20s-14,7-14,18C181,245,179,245,179,243Z"/><path id="path3126-0-3" class="cls-2" d="M89,477c0,11-5.7,18-14,18s-15-9-15-20v-2.8c0-7.3,2.7-14.4,5-21,2.4-6.8,5.8-12.8,9.1-18.9C79.1,422.9,90,405,90,405s10.9,17.9,15.9,27.3c3.2,6.1,6.7,12.1,9.1,18.9,2.3,6.6,5,13.7,5,21V475c0,11-6.7,20-15,20s-14-7-14-18C91,475,89,475,89,477Z"/><path id="path3126-9-92" class="cls-2" d="M269,477c0,11-5.7,18-14,18s-15-9-15-20v-2.8c0-7.3,2.7-14.4,5-21,2.4-6.8,5.8-12.8,9.1-18.9,5-9.4,15.9-27.3,15.9-27.3s10.9,17.9,15.9,27.3c3.2,6.1,6.7,12.1,9.1,18.9,2.3,6.6,5,13.7,5,21V475c0,11-6.7,20-15,20s-14-7-14-18C271,475,269,475,269,477Z"/><path id="path3126-1-4-4" class="cls-2" d="M29.5,99c0-5.5-2.9-9-7-9S15,94.5,15,100v1.4c0,3.6,1.3,7.2,2.5,10.5a68,68,0,0,0,4.5,9.4c2.5,4.7,8,13.7,8,13.7s5.5-8.9,8-13.7a68,68,0,0,0,4.5-9.4c1.2-3.3,2.5-6.9,2.5-10.5V100c0-5.5-3.4-10-7.5-10s-7,3.5-7,9C30.5,100,29.5,100,29.5,99Z"/><path id="path3126-1-8" class="cls-2" d="M329.5,441c0,5.5-2.9,9-7,9s-7.5-4.5-7.5-10v-1.4c0-3.6,1.3-7.2,2.5-10.5a68,68,0,0,1,4.5-9.4c2.5-4.7,8-13.7,8-13.7s5.5,8.9,8,13.7a68,68,0,0,1,4.5,9.4c1.2,3.3,2.5,6.9,2.5,10.5V440c0,5.5-3.4,10-7.5,10s-7-3.5-7-9C330.5,440,329.5,440,329.5,441Z"/></g></g></g></svg>