<svg xmlns="http://www.w3.org/2000/svg" viewBox="0 0 359.9 539.9"><defs><style>.cls-1{fill:#fff;stroke:#000;}.cls-2{fill:#f55;}</style></defs><g id="Layer_2" data-name="Layer 2"><g id="svg2"><g id="g3028"><path id="rect6472-070" class="cls-1" d="M30.4.5H329.5a29.92,29.92,0,0,1,29.9,29.9V509.5a29.92,29.92,0,0,1-29.9,29.9H30.4A29.92,29.92,0,0,1,.5,509.5V30.4A29.92,29.92,0,0,1,30.4.5Z"/><path id="path3497-6" class="cls-2" d="M27.5,30l-9,50h5l2.3-13h8.3l2.3,13h5l-9-50ZM30,43.9,33.2,62H26.7Z"/><path id="path3497-5-0" class="cls-2" d="M327.5,510l-9-50h5l2.3,13h8.3l2.3-13h5l-9,50Zm2.5-13.9,3.2-18.1h-6.5l3.3,18.1Z"/><path id="path3126-70" class="cls-2" d="M179,243c0-11-5.7-18-14-18s-15,9-15,20v2.8c0,7.3,2.7,14.4,5,21,2.4,6.8,5.8,12.8,9.1,18.9,5,9.4,15.9,27.3,15.9,27.3s10.9-17.9,15.9-27.3c3.2-6.1,6.7-12.1,9.1-18.9,2.3-6.6,5-13.7,5-21V245c0-11-6.7-20-15-20s-14,7-14,18C181,245,179,245,179,243Z"/><path id="path3126-1-5" class="cls-2" d="M29.5,99c0-5.5-2.9-9-7-9S15,94.5,15,100v1.4c0,3.6,1.3,7.2,2.5,10.5a68,68,0,0,0,4.5,9.4c2.5,4.7,8,13.7,8,13.7s5.5-8.9,8-13.7a68,68,0,0,0,4.5-9.4c1.2-3.3,2.5-6.9,2.5-10.5V100c0-5.5-3.4-10-7.5-10s-7,3.5-7,9C30.5,100,29.5,100,29.5,99Z"/><path id="path3126-1-7-67" class="cls-2" d="M329.5,441c0,5.5-2.9,9-7,9s-7.5-4.5-7.5-10v-1.4c0-3.6,1.3-7.2,2.5-10.5a68,68,0,0,1,4.5-9.4c2.5-4.7,8-13.7,8-13.7s5.5,8.9,8,13.7a68,68,0,0,1,4.5,9.4c1.2,3.3,2.5,6.9,2.5,10.5V440c0,5.5-3.4,10-7.5,10s-7-3.5-7-9C330.5,440,329.5,440,329.5,441Z"/></g></g></g></svg>