<svg xmlns="http://www.w3.org/2000/svg" viewBox="0 0 359.89 539.89"><defs><style>.cls-1,.cls-11{fill:#fff;}.cls-1,.cls-12,.cls-13{stroke:#000;}.cls-1{stroke-width:0.99px;}.cls-2,.cls-9{fill:#ff5;}.cls-10,.cls-12,.cls-3,.cls-8{fill:none;}.cls-10,.cls-11,.cls-3,.cls-5,.cls-7,.cls-8,.cls-9{stroke:#55a;}.cls-11,.cls-12,.cls-13,.cls-3,.cls-5,.cls-7,.cls-8,.cls-9{stroke-width:1.98px;}.cls-4,.cls-5{fill:#f55;}.cls-10,.cls-11,.cls-12,.cls-13,.cls-5,.cls-7,.cls-8,.cls-9{stroke-linecap:round;stroke-linejoin:round;}.cls-6,.cls-7{fill:#55a;}.cls-10{stroke-width:2.06px;}</style></defs><g id="Layer_2" data-name="Layer 2"><g id="svg2"><g id="g9009"><path id="path9011" class="cls-1" d="M30.4.5H329.5a29.85,29.85,0,0,1,29.9,29.9V509.5a29.85,29.85,0,0,1-29.9,29.9H30.4A29.85,29.85,0,0,1,.5,509.5V30.4A29.92,29.92,0,0,1,30.4.5Z"/><path id="path9013" class="cls-2" d="M260.2,302.3l-9.5.7-12.2-2.4L225,295.3l-11.7-6.6-9-7.5-16.7-20.8L178.7,248l-8.3-7.3-16.2-11.9-14-7.5L123,216.2l-13.4-1.4-9.7-.2-11.1,3.3L100,237.6l9.5-.7,12.3,2.4,13.4,5.2,11.8,6.7,9,7.5,16.7,20.8,8.9,12.4,8.3,7.3,16.2,11.9,14,7.5,17.2,5.1,13.4,1.3,9.7.2,11.1-3.2Z"/><path id="path9015" class="cls-3" d="M60,30H330V390h0"/><path id="path9017" d="M30,30v5h5V70a5,5,0,0,1-10,0V65H20v5a10,10,0,0,0,20,0V30Z"/><path id="path9019" d="M330,510v-5h-5V470a5,5,0,0,1,10,0v5h5v-5a10,10,0,0,0-20,0v40Z"/><path id="path9021" class="cls-2" d="M170.1,184.4,208,215.2l-.3,62.7-3.9,2.7-6.8-6.8-10.3-13.9-8.6-12.1-3.9-4.1-4.7-3.9Z"/><path id="path9023" class="cls-2" d="M222.2,293.3l24.8-18,2.4,4.7-21.3,16.9Z"/><path id="path9025" class="cls-2" d="M203.8,280l36.1-23.7L242,261l-33.7,22.2Z"/><path id="path9027" class="cls-4" d="M217.1,208.4l-.3,63,24-15.7-3.9-17.8-2.7-17.1-.6-16,.3-8.6Z"/><path id="path9029" d="M207.7,283.3,242,260.5s2.4,6.1,3.5,9.2c.7,1.8,2.1,5.6,2.1,5.6l-25.4,18.4s-6.5-2.1-9.2-4.1c-2.2-1.8-5.3-6.3-5.3-6.3Z"/><path id="path9031" d="M148,167.7,207.2,215,234,198l-.2-14,.7-13.3.5-10.5-27.2,18.5-35-28.8-4.5-2.2-2.5-2.3-4-.5-2.3-3.3-3,.8-3-3.8h-3l-2.5-2.3Z"/><path id="path9033" d="M138,131.5l-.2,89,6,2.2,5,2.8-.2-89.3-3.3-.5-3.2-3.3-2,.8Z"/><path id="path9035" class="cls-5" d="M260,208.2l20.2-10s3.9,11.1,6,16.5,4,11,6.7,16.2a64.16,64.16,0,0,0,6.2,10,108.82,108.82,0,0,0,8,8.2l-.2,78.5s-9.9-12-14-18.5c-3.6-5.7-6.3-11.9-9.2-18-3.8-7.9-7.9-15.8-11-24a165.72,165.72,0,0,1-5-17c-1.5-6-2.9-12-4-18-.8-4.4-1.3-8.9-2-13.3-.5-3.4-1.7-10.6-1.7-10.6Z"/><path id="path9037" class="cls-2" d="M263.8,149.5,291,164.2l-2.8,10.3,1,10,3,6.7-8,6-13.7,6-10.2,4.3-1-10v-12l.7-14,2.2-15.7Z"/><path id="path9039" class="cls-6" d="M226.5,296.8l22.7-17s4,8.7,6,13c1.6,3.4,5,10.2,5,10.2s-11.1.7-16.5-.2c-5.9-1.1-17.2-6-17.2-6Z"/><path id="path9041" d="M330,382.7l-16.9-14.6.2-279.7,16.6-.1.1,294.4Z"/><path id="path9043" class="cls-6" d="M96,148.6l.2,66.8-6.9,2.1s-11.2-15.6-16.9-23.4c-4.2-5.6-8.7-10.9-12.8-16.6-1-1.4-2.8-4.2-2.8-4.2s11.1-8.1,16.8-11.9c4.1-2.7,8.2-5.2,12.4-7.6C89.2,152,96,148.6,96,148.6Z"/><path id="path9045" d="M112.3,140.5l-.4,74.2s-5.5-.3-8.3-.2-8.5.9-8.5.9l.2-66.8s6.3-3.4,9.5-4.9C107.3,142.5,112.3,140.5,112.3,140.5Z"/><path id="path9047" class="cls-2" d="M205.2,64.1c-7.1.1-14.1-.1-21.2.4-5.9.4-11.7,1-17.5,1.9-3.8.6-7.5,1.6-11.3,2.3-.6,4.1-1.2,8.3-1.8,12.4-.6,4.7-1.1,9.3-1.7,14-.5,3.5-.8,7-1.6,10.4-.5,2.1-1.3,4-1.9,6l-2.7.4c-.9-.9-1.5-2.3-2.7-2.7a6.87,6.87,0,0,0-5,.9c-2.1,1.1-3.6,3.2-4.9,5.3a17.07,17.07,0,0,0-2.5,6.6,9.49,9.49,0,0,0,.7,4.4,5.69,5.69,0,0,0,2.1,2.7c1,.5,2.2,0,3.4,0a14.65,14.65,0,0,0,1.7,2.4c1.2,1,2.8,1.3,4.3,1.9.8.9,1.2,2.2,2.3,2.7.9.4,2,0,3,0,.9.8,1.5,2,2.7,2.5.9.4,2,0,3,0,1,1.2,1.6,2.9,3,3.5,1,.4,2.2-.1,3.4-.2.9,1.1,1.4,2.6,2.7,3.2,1,.5,2.2,0,3.4,0a28.78,28.78,0,0,0,3.3,2.8,14,14,0,0,0,4.6,1.9,12.63,12.63,0,0,0,5.1.4,12.4,12.4,0,0,0,5.1-2.3,15.42,15.42,0,0,0,4.2-4.6,28.73,28.73,0,0,0,3.5-7.8c1.6-4.9,2.1-10.1,3-15.2,1.2-6.6,2-13.3,3.2-20s2.4-13.2,3.7-19.8c1.2-5.4,2.3-10.9,3.4-16.4Z"/><path id="path9049" class="cls-5" d="M132,30l20,40s10.2-2.7,15.4-3.5A203,203,0,0,1,192,64a250.64,250.64,0,0,1,30,1c11.8,1.1,35,5,35,5l23-40Z"/><path id="path9051" class="cls-7" d="M146.8,31.5,162,61c6.5-2.3,11.4-2.3,19.7-3.3l-3.9-26.3h-5.7l5.1,22.7c-4.7.3-8.5.3-12.6,1.9L153.5,31.3h-6.7v.2Z"/><path id="path9053" class="cls-7" d="M186.7,31.5l3,25.3c10.1-.9,18.1-1.5,28.2-.5l5.5-24.8H217l-3,19.8c-7.9-.5-12.6,0-19.2.5l-2.2-20.3Z"/><path id="path9055" class="cls-7" d="M233.3,31.5,226,56.6c7.4.6,18.1,1.6,26.1,3.5l13.7-28.5h-6.3L249,55c-4.5-1.2-12-1.7-16.5-2.4l6.2-21.2h-5.4v.1Z"/><path id="path9057" class="cls-8" d="M205,65s-3.5,16.7-5,25c-1.8,10-2.9,20.1-5,30-1.4,6.7-1.6,14-5,20-2.3,4.1-5.4,8.8-10,10-4.4,1.2-10.2-.2-13.3-3.6-2.6-2.9-3.1-7.8-1.7-11.4,1.4-3.9,5.3-8.3,9.5-8.2,4.4.1,9.2,4.9,9.2,9.2,0,3.9-4.2,8.3-8.1,8.5A5.77,5.77,0,0,1,170,140c-.4-2.8,2.2-6.8,5-6.8,1.7,0,4,2,2.9,4.1"/><path id="path9059" class="cls-8" d="M199.2,64.2c-2.9,9-3.7,18.1-5.2,27.2s-2,18.2-4.1,27.2c-1.7,7.1-3.6,14.6-6.8,20.8"/><path id="path9061" class="cls-8" d="M192.5,64.2c-2.2,7.8-2.9,16.1-4.1,24.1s-1.6,15.9-3.2,23.7c-1.1,5.7-1.9,11.3-4.3,16.7"/><path id="path9063" class="cls-8" d="M186.5,64.6c-2,7.4-2.6,15.3-3.7,23-1.1,7.5-1.5,15.2-2.8,22.6-1,5.4-1.7,10.8-3.9,15.9"/><path id="path9065" class="cls-8" d="M180.7,65.2c-1.8,7.1-2.3,14.6-3.3,21.9-1,7.1-1.3,14.4-2.5,21.5-.9,5.1-1.5,10.3-3.5,15.1"/><path id="path9067" class="cls-8" d="M175,65.7c-1.8,6.7-2.3,13.9-3.3,20.8s-1.3,13.7-2.6,20.4c-.9,4.9-1.5,9.8-3.5,14.4"/><path id="path9069" class="cls-8" d="M168.6,66.6c-1.7,6.3-2.1,12.6-3,18.9s-1.3,12.8-2.5,19c-.9,4.5-1.5,9.1-3.4,13.4"/><path id="path9071" class="cls-8" d="M162.5,67.5c-1.7,5.7-2.2,11.8-3,17.7s-1.2,11.7-2.3,17.4c-.8,4.1-1.4,8.3-3.2,12.3"/><path id="path9073" class="cls-8" d="M155.5,69.5c-1.4,5.1-1.8,10.2-2.6,15.3s-1,10.5-2,15.6c-.7,3.7-1.2,7.5-2.7,11"/><path id="path9075" class="cls-8" d="M175.4,127.2c-1.6-1.1-3.1-3.1-5-3.2-3.2-.1-6.4,2.1-8.5,4.5a13.83,13.83,0,0,0-3.3,9.7,9,9,0,0,0,3.3,6.6c1,.7,2,.5,3.6.7"/><path id="path9077" class="cls-8" d="M168.9,124c-1.3-1.5-2.4-2.7-4-2.8-3.2-.2-6.4,2.1-8.5,4.5a13.58,13.58,0,0,0-3.3,9.6c.1,2.4,1.2,5.3,3.3,6.6,1,.6,1.9.7,3.5-.1"/><path id="path9079" class="cls-8" d="M164.1,121c-1.6-1.1-3.1-3.1-5-3.2-3.2-.1-6.4,2.1-8.5,4.5a13.58,13.58,0,0,0-3.3,9.6,8.54,8.54,0,0,0,3.3,6.6c.9.6,1.6.6,3.2.1"/><path id="path9081" class="cls-8" d="M157.3,117.6c-1.2-1.8-2.5-2.7-4.1-2.8-3.2-.1-6.4,2.1-8.5,4.5a14.05,14.05,0,0,0-3.3,9.6,9.4,9.4,0,0,0,3.3,6.6,3.64,3.64,0,0,0,3.4.5"/><path id="path9083" class="cls-8" d="M151.6,114.3a4.43,4.43,0,0,0-3.8-2.6c-3.2-.2-6.4,2.1-8.5,4.5a14.4,14.4,0,0,0-3.4,9.7,9,9,0,0,0,3.3,6.5c.7.6,1.2.2,2.7.4"/><path id="path9085" class="cls-8" d="M145.7,111.7a3.31,3.31,0,0,0-3.1-2.5c-3.2-.3-6.4,2-8.5,4.5a14.56,14.56,0,0,0-3.3,9.6,6.63,6.63,0,0,0,2,5c1.1,1,2.6,1,4.1,1.1"/><path id="path9087" class="cls-8" d="M256.8,70.5c-.9,10.2-1.5,20.3-2.5,30.4-.6,5.5-1.1,11.1-2,16.6-1.3,7.3-1.6,15-5,21.5a31.63,31.63,0,0,1-8.9,10,29.55,29.55,0,0,1-10.9,5.5,28.64,28.64,0,0,1-12.7.2c-4.1-.9-7.8-3.2-11.6-5.2-4.7-2.5-8.9-5.7-13.4-8.6"/><path id="path9089" class="cls-8" d="M203,83.9c3.9-1.1,7.8-2.8,11.8-3.4,2.6-.4,5.4-.9,8-.2,1.3.4,3.6,1.4,3.4,2.2-.1.4-.7.3-1.1.3-1.5,0-2.8-.9-4.3-1.1a29.13,29.13,0,0,0-6.6,0C210.3,82,206.7,83.1,203,83.9Z"/><path id="path9091" class="cls-8" d="M225,92.2c.5-.5,1.7-.9,1.3-1.5a16.65,16.65,0,0,0-5.2-3.3,16.09,16.09,0,0,0-5.8-1,18.89,18.89,0,0,0-6.2.8,26.58,26.58,0,0,0-4,1.7"/><path id="path9093" class="cls-8" d="M200.8,93.4c3.3-.9,6.6-2.1,10-2.5a22.36,22.36,0,0,1,7.3.1,15.51,15.51,0,0,1,5.5,2.2,12,12,0,0,1,2.7,2.8,43.09,43.09,0,0,1-4.9,2.2,23.76,23.76,0,0,1-8.4.7,20.85,20.85,0,0,1-6.8-2.2A48.6,48.6,0,0,1,200.8,93.4Z"/><path id="path9095" class="cls-8" d="M209.2,91.9c.1,1.2-.3,2.5.2,3.5a6.12,6.12,0,0,0,3.4,2.5,5.32,5.32,0,0,0,3.3,0,5.42,5.42,0,0,0,2.4-2.1c.7-1.2.6-2.8.9-4.2"/><path id="path9097" class="cls-7" d="M213,92.8a1.21,1.21,0,0,0,.1,1.4,1.5,1.5,0,0,0,2.6.1c.3-.5.5-1.2.1-1.6a2.13,2.13,0,0,0-2.8.1Z"/><path id="path9099" class="cls-7" d="M208.9,103.9a59.62,59.62,0,0,0,8.4-2c2.4-.9,4.6-2.7,6.7-3.6"/><path id="path9101" class="cls-8" d="M237.2,86.5a27.17,27.17,0,0,0-1.8,4.4c-.6,3.2-.1,6.5.2,9.8.5,4,1.9,7.8,2.6,11.8.4,2.3,1.5,4.6.9,6.9a5.43,5.43,0,0,1-1.9,2.8,16.54,16.54,0,0,1-3.6,2.2"/><path id="path9103" class="cls-8" d="M223.9,111.3c-1.6,1.7-3.8,2.9-4.7,5.1a4.2,4.2,0,0,0,0,3.3,3.82,3.82,0,0,0,6,1.7c1.2-.6,1.9-2.1,3.1-2.6a4.12,4.12,0,0,1,2.8-.6,1,1,0,0,1,.6.8c-.3,1-2,.8-2.9,1.1-1.3.5-2.6.9-3.9,1.4"/><path id="path9105" class="cls-7" d="M216.3,132.4c1.6-.8,3.9-.6,5.8-.6s3.9,1,5.8.9c2.2-.1,4.3-1.6,6.6-1.6a17.76,17.76,0,0,1,4.8,1.1,3.24,3.24,0,0,0,0,1.7c-1.6-.6-4-1.5-6-1.2s-3.3,2.4-5.2,2.5c-2.2.1-4-2.5-6.2-2.6s-4.4,1.6-6.1,2a4.66,4.66,0,0,0,.5-2.2Z"/><path id="path9107" class="cls-8" d="M220.3,139.4c1.6.7,3.1,1.7,4.8,2a12.75,12.75,0,0,0,3.9,0,9.89,9.89,0,0,0,2.4-.9c.7-.3,1.5-.7,2.2-1"/><path id="path9109" class="cls-8" d="M231.8,144.4a9.07,9.07,0,0,0-3.4-.9,6.94,6.94,0,0,0-2.8.8"/><path id="path9111" class="cls-7" d="M238.3,83.6c1.6-1.8,5-2.3,7.7-2.5a16.47,16.47,0,0,1,5.8,1,27.06,27.06,0,0,1,3.9,1.7c-2.2-.4-4.4-1.2-6.6-1.3a28.91,28.91,0,0,0-5.8.8,18,18,0,0,0-3.8,1.6C239,85.1,237.9,84,238.3,83.6Z"/><path id="path9113" class="cls-8" d="M237.7,90.4a32.9,32.9,0,0,1,4.6-2.3,16.4,16.4,0,0,1,7.3-.6c1.6.3,2.9,1.3,4.4,2"/><path id="path9115" class="cls-8" d="M236.7,93.6a26.53,26.53,0,0,1,5.7-1.5,25.74,25.74,0,0,1,6.8-.1,10.86,10.86,0,0,1,3.9,1.1,10.22,10.22,0,0,1,1.8,1.8l-.4,2.7a15.8,15.8,0,0,1-8.7,1.4,17.59,17.59,0,0,1-5.5-.9,13.76,13.76,0,0,1-3.6-2.3c-.4-.3-.6-.7-1-1,.4-.3.5-.9,1-1.2Z"/><path id="path9117" class="cls-8" d="M241.1,92.9c.1,1.2-.3,2.5.2,3.5a6.12,6.12,0,0,0,3.4,2.5,4.69,4.69,0,0,0,3.3,0,4.87,4.87,0,0,0,2.4-2.1c.7-1.2.6-2.8.9-4.2"/><path id="path9119" class="cls-7" d="M244.6,93.8a1.21,1.21,0,0,0,.1,1.4,1.83,1.83,0,0,0,1.3.8,1.56,1.56,0,0,0,1.3-.7c.3-.5.5-1.3.1-1.7a2.26,2.26,0,0,0-2.8.2Z"/><path id="path9121" class="cls-8" d="M237.5,99.1a37.91,37.91,0,0,0,3.8,4.2,30.47,30.47,0,0,0,4,2.1"/><path id="path9123" class="cls-9" d="M253.6,108.6a24.93,24.93,0,0,0,2.6,7c1.3,2.1,2.7,4.3,4.8,5.6a8.65,8.65,0,0,0,5.6,1.7,6.57,6.57,0,0,0,4.7-2.4,8.05,8.05,0,0,0,1.2-5.3,7.65,7.65,0,0,0-1.7-4.6,6.55,6.55,0,0,0-3.9-2.1,3.7,3.7,0,0,0-2.9.8,3,3,0,0,0-.8,2.2c0,.9-.1,1.7,1,2.3-.8-.3-1.3-1.3-1.9-2.1a23.7,23.7,0,0,1-1.9-3.5,32.55,32.55,0,0,1-1.5-4.4c-.5-2-.9-4.1-1.3-6.1-.7-3.2-1.5-7.1-2.1-9.6-.6,5.7-1.3,14.9-1.9,20.5Z"/><path id="path9125" class="cls-9" d="M250.8,128.6a47.31,47.31,0,0,0,4.9,12.4,18.56,18.56,0,0,0,4.8,5.6c1.6,1.2,3.5,2.5,5.5,2.3a7.13,7.13,0,0,0,4.9-3,8.71,8.71,0,0,0,1.2-5.2,7.94,7.94,0,0,0-1.7-4.7,6.55,6.55,0,0,0-3.9-2.1,3.7,3.7,0,0,0-2.9.8,3,3,0,0,0-.8,2.2c.1.8,0,1.6,1.1,2.2a4.69,4.69,0,0,1-1.9-1.8,17,17,0,0,1-1.9-3.5c-.6-1.4-1-2.9-1.5-4.4-.5-1.7-1-3.5-1.6-5.2-1.2-4.1-3-9.7-3.5-12.3-.7,5.5-2.1,11.1-2.7,16.7Z"/><path id="path9127" class="cls-9" d="M248.6,136.4a33.13,33.13,0,0,0,1.6,4.2c.7,1.5,2.6,4.4,2.6,4.4s3.2,1.5,4.9,2.1,4.7,1.5,4.7,1.5a40.32,40.32,0,0,1-5.1-4.7,22.64,22.64,0,0,1-3-5.2,53.14,53.14,0,0,1-2-5.6c-.6-1.7-1.6-5.1-1.6-5.1s-.6,3.3-1,5c-.3,1.1-1.1,3.4-1.1,3.4Z"/><path id="path9129" class="cls-9" d="M252.8,145l-6.8-3.9,2.6-4.7Z"/><path id="path9131" class="cls-9" d="M182.4,149.2l24.9,20.7,28.1-18.5-.7,9-27,18.6-35.1-29A13.08,13.08,0,0,0,182.4,149.2Z"/><path id="path9133" class="cls-8" d="M112.3,158.5l9.4,10.6-9.2,9.7"/><path id="path9135" class="cls-8" d="M112.6,164.9l3.4,3.9-3.4,3.5"/><path id="path9137" class="cls-7" d="M125.5,146.5l-9.4,9.7,9,9.9,9.1-9.9Zm-.2,4.2,5.4,5-5.4,5.9-5.2-5.2Z"/><path id="path9139" class="cls-9" d="M330,52,292,88h38Z"/><path id="path9141" class="cls-5" d="M330,60,307,82h23Z"/><path id="path9143" class="cls-8" d="M111.7,184.1l9.4,10.6-9.2,9.7"/><path id="path9145" class="cls-8" d="M112,190.6l3.4,3.9L112,198"/><path id="path9147" class="cls-8" d="M137.2,159.6l-9.2,9.9,9.2,9.7"/><path id="path9149" class="cls-8" d="M137,165.3l-3.4,3.9,3.4,3.5"/><path id="path9151" class="cls-8" d="M136.5,203.7l-8.6-9.3,9.2-9.7"/><path id="path9153" class="cls-8" d="M136.8,198.6l-3.3-3.9,3.3-3.5"/><path id="path9155" class="cls-7" d="M124.5,172.3l-9.4,9.7,9,9.9,9.5-10.1Zm-.2,4.2,5.4,5-5.4,5.9-5.2-5.2Z"/><path id="path9157" class="cls-7" d="M124.9,197.6l-9.3,9.7,9,9.4,9.7-9.2Zm-.1,4.2,5.4,5-5.4,5.9-5.2-5.1Z"/><path id="path9159" class="cls-8" d="M137.4,152.3l-8.4-9.1,7.8-8.4"/><path id="path9161" class="cls-8" d="M137.2,147l-3.4-3.5,2.8-3.3"/><path id="path9163" class="cls-8" d="M112.6,154.2l10-10.4-5.7-6.1"/><path id="path9165" class="cls-8" d="M113,147.8l3.4-3.9-3.4-3.5"/><path id="path9167" class="cls-5" d="M111.8,210.3l3.9,4.6"/><path id="path9169" class="cls-5" d="M137.5,210.1l-7.1,7.3"/><path id="path9171" class="cls-5" d="M112.1,140.8l-.6,73.9"/><path id="path9173" class="cls-5" d="M137.7,131.7l-.2,88.4"/><path id="path9175" class="cls-7" d="M121.2,136.2l4.4,4.4,8.5-8.4-1.3-2.3Z"/><path id="path9177" class="cls-9" d="M307,88v71l6,2V88Z"/><path id="path9179" class="cls-9" d="M313,368V166h-6V370l23,20v-7Z"/><path id="path9181" class="cls-2" d="M321.5,90a2.5,2.5,0,1,0,2.5,2.5A2.77,2.77,0,0,0,321.5,90Z"/><path id="path9183" class="cls-2" d="M321.5,104a2.5,2.5,0,1,0,2.5,2.5A2.77,2.77,0,0,0,321.5,104Z"/><path id="path9185" class="cls-2" d="M324.5,97a2.5,2.5,0,1,0,2.5,2.5A2.77,2.77,0,0,0,324.5,97Z"/><path id="path9187" class="cls-2" d="M318.5,97a2.5,2.5,0,1,0,2.5,2.5A2.77,2.77,0,0,0,318.5,97Z"/><path id="path9189" class="cls-2" d="M321.7,138.8a2.5,2.5,0,1,0,2.5,2.5A3,3,0,0,0,321.7,138.8Z"/><path id="path9191" class="cls-2" d="M321.7,152.8a2.5,2.5,0,1,0,2.5,2.5A2.87,2.87,0,0,0,321.7,152.8Z"/><path id="path9193" class="cls-2" d="M324.6,145.8a2.5,2.5,0,1,0,2.5,2.5A2.69,2.69,0,0,0,324.6,145.8Z"/><path id="path9195" class="cls-2" d="M318.6,145.8a2.5,2.5,0,1,0,2.5,2.5A2.69,2.69,0,0,0,318.6,145.8Z"/><path id="path9197" class="cls-2" d="M321.4,187.5a2.5,2.5,0,1,0,2.5,2.5A2.77,2.77,0,0,0,321.4,187.5Z"/><path id="path9199" class="cls-2" d="M321.4,201.5a2.5,2.5,0,1,0,2.5,2.5A2.77,2.77,0,0,0,321.4,201.5Z"/><path id="path9201" class="cls-2" d="M324.5,194.5A2.5,2.5,0,1,0,327,197,2.87,2.87,0,0,0,324.5,194.5Z"/><path id="path9203" class="cls-2" d="M318.5,194.5A2.5,2.5,0,1,0,321,197,2.87,2.87,0,0,0,318.5,194.5Z"/><path id="path9205" class="cls-2" d="M321.3,237.1a2.5,2.5,0,1,0,2.5,2.5A2.87,2.87,0,0,0,321.3,237.1Z"/><path id="path9207" class="cls-2" d="M321.3,251.1a2.5,2.5,0,1,0,2.5,2.5A2.87,2.87,0,0,0,321.3,251.1Z"/><path id="path9209" class="cls-2" d="M324.2,244.1a2.5,2.5,0,1,0,2.5,2.5A2.61,2.61,0,0,0,324.2,244.1Z"/><path id="path9211" class="cls-2" d="M318.3,244.1a2.5,2.5,0,1,0,2.5,2.5A2.87,2.87,0,0,0,318.3,244.1Z"/><path id="path9213" class="cls-2" d="M321.3,285.5a2.5,2.5,0,1,0,2.5,2.5A2.87,2.87,0,0,0,321.3,285.5Z"/><path id="path9215" class="cls-2" d="M321.3,299.5a2.5,2.5,0,1,0,2.5,2.5A2.87,2.87,0,0,0,321.3,299.5Z"/><path id="path9217" class="cls-2" d="M324.2,292.5a2.5,2.5,0,1,0,2.5,2.5A2.61,2.61,0,0,0,324.2,292.5Z"/><path id="path9219" class="cls-2" d="M318.3,292.5a2.5,2.5,0,1,0,2.5,2.5A2.87,2.87,0,0,0,318.3,292.5Z"/><path id="path9221" class="cls-2" d="M320.7,334.1a2.5,2.5,0,1,0,2.5,2.5A2.77,2.77,0,0,0,320.7,334.1Z"/><path id="path9223" class="cls-2" d="M320.7,348.1a2.5,2.5,0,1,0,2.5,2.5A2.77,2.77,0,0,0,320.7,348.1Z"/><path id="path9225" class="cls-2" d="M323.7,341a2.5,2.5,0,1,0,2.5,2.5A2.87,2.87,0,0,0,323.7,341Z"/><path id="path9227" class="cls-2" d="M317.7,341a2.5,2.5,0,1,0,2.5,2.5A2.87,2.87,0,0,0,317.7,341Z"/><path id="path9229" class="cls-2" d="M315,127v-5l13-12v5Z"/><path id="path9231" class="cls-2" d="M315,135v-5l13-12v5Z"/><path id="path9233" class="cls-2" d="M315,177v-5l13-12v5Z"/><path id="path9235" class="cls-2" d="M315,185v-5l13-12v5Z"/><path id="path9237" class="cls-2" d="M315,227v-5l13-12v5Z"/><path id="path9239" class="cls-2" d="M315,235v-5l13-12v5Z"/><path id="path9241" class="cls-2" d="M315,275v-5l13-12v5Z"/><path id="path9243" class="cls-2" d="M315,283v-5l13-12v5Z"/><path id="path9245" class="cls-2" d="M315,322v-5l13-12v5Z"/><path id="path9247" class="cls-2" d="M315,330v-5l13-12v5Z"/><path id="path9249" class="cls-2" d="M315.1,368.3,315,367l13-12v5l-10,9.9Z"/><path id="path9251" class="cls-2" d="M321.7,373.5l-2.4-2,8.6-8.5v5Z"/><path id="path9253" class="cls-7" d="M247.5,171l-9.4,9.7,9,9.9,9.7-9.7Zm-.2,4.2,5.4,5-5.4,5.8-5.2-5.1Z"/><path id="path9255" class="cls-7" d="M251.2,143.5,240.7,152l7.7,10.9,10.8-8.4Zm-.7,4.1,4.6,5.6-6.1,5.1-4.5-5.8Z"/><path id="path9257" class="cls-7" d="M247.1,196.8l-8.3,9.9,10,8.2,8.4-9.9Zm.3,3.9,5.8,4.1-4.7,6-5.7-4.3Z"/><path id="path9259" class="cls-7" d="M249.6,220.2l-7.8,11,10.3,8.5,8.2-11Zm.5,4.2,6,4.1-4.4,6.6-5.9-4.3Z"/><path id="path9261" class="cls-7" d="M253.8,246l-6,12,11.5,6.8,6.4-12.2Zm1.1,4.1,6.6,3.2-3.4,7.2-6.5-3.4Z"/><path id="path9263" class="cls-7" d="M261,271.4,256.1,284l12.1,5.7,5.2-12.7Zm1.5,4,6.8,2.6-2.7,7.5-6.8-2.7Z"/><path id="path9265" class="cls-7" d="M271.8,297.1l-2.4,13.3,13,3.3,2.7-13.4Zm2.2,3.5,7.2,1.2-1.2,7.8-7.2-1.4Z"/><path id="path9267" class="cls-7" d="M285.2,320.8l-1.3,13.4,13.2,2.2,1.5-13.6Zm2.5,3.4,7.3.6-.5,7.9-7.3-.8Z"/><path id="path9269" class="cls-8" d="M261.2,158.8,251,167l8.1,10"/><path id="path9271" class="cls-8" d="M260.5,164l-3.8,3.3,2.9,3.6"/><path id="path9273" class="cls-8" d="M262.5,149.5s-1.5,12.3-2,18.5c-.7,8.6-1.8,17.1-1.8,25.8a213.59,213.59,0,0,0,2,22.5,234.38,234.38,0,0,0,4,23.7,237,237,0,0,0,7.5,25.8,229.6,229.6,0,0,0,9.5,22.3,239.52,239.52,0,0,0,12.7,22.7C298,316.3,306,327,306,327"/><path id="path9275" class="cls-8" d="M235,176.1l10.6-11.3-9.5-11.4"/><path id="path9277" class="cls-8" d="M235.5,169.6l4.5-4.7-4.2-5.2"/><path id="path9279" class="cls-8" d="M258.5,184.6l-8.5,8.2,7.9,8.7"/><path id="path9281" class="cls-8" d="M258.2,189.4l-3.2,3.3,2.9,3.2"/><path id="path9283" class="cls-8" d="M234.1,206l10.2-11.7-9.9-11.1"/><path id="path9285" class="cls-8" d="M234.3,199.5l4.4-4.9-4.4-5"/><path id="path9287" class="cls-8" d="M236.8,231.3l9-12.7-10.9-10"/><path id="path9289" class="cls-8" d="M236.4,224.8l3.8-5.3-4.9-4.6"/><path id="path9291" class="cls-8" d="M241.6,256.7,249,243l-12-8.7"/><path id="path9293" class="cls-8" d="M240.4,250.3l3.2-5.7-5.4-4"/><path id="path9295" class="cls-8" d="M252,282.8l5.3-14.6-13.2-6.8"/><path id="path9297" class="cls-8" d="M249.8,276.6l2.3-6.2-5.9-3.1"/><path id="path9299" class="cls-8" d="M264.5,309.2,268,294l-13.9-5.1"/><path id="path9301" class="cls-8" d="M261.7,303.3l1.5-6.4-6.2-2.4"/><path id="path9303" class="cls-10" d="M279.3,333.4l2-15.4-13.2-3.9"/><path id="path9305" class="cls-10" d="M276.2,327.8l.9-6.5-5.9-1.8"/><path id="path9307" class="cls-10" d="M297.2,356.7l-.7-16.1-13.7-1.5"/><path id="path9309" class="cls-10" d="M293.1,351.1l-.2-6.5-6.1-.7"/><path id="path9311" class="cls-8" d="M260.8,303.7c4,6.7,7.8,13.5,12,20,5.4,8.4,10.9,16.8,17,24.7,5.2,6.7,11,12.9,16.5,19.3"/><path id="path9313" class="cls-8" d="M300.8,360.2l5.7.7"/><path id="path9315" class="cls-7" d="M306.2,357l-5.5-1.2.5-14.5,5,1.2Z"/><path id="path9317" class="cls-8" d="M302.2,323.3l-1,13,5,1.2"/><path id="path9319" class="cls-8" d="M259.7,207.8l-7.5,9.3,9,7.6"/><path id="path9321" class="cls-8" d="M260,212.7l-2.7,3.6,3.3,2.8"/><path id="path9323" class="cls-8" d="M262,232.4l-5.7,10.4,10.1,6"/><path id="path9325" class="cls-8" d="M263.1,237.2l-2.1,4,3.7,2.2"/><path id="path9327" class="cls-8" d="M268.5,256.8l-4.9,10.8,10.6,5.1"/><path id="path9329" class="cls-8" d="M270,261.5l-1.7,4.2,3.9,1.8"/><path id="path9331" class="cls-8" d="M276.7,281.2l-2.9,11.5,11.3,3.2"/><path id="path9333" class="cls-8" d="M279,285.6l-1,4.4,4.1,1.1"/><path id="path9335" class="cls-8" d="M288.7,304.3l-1.6,11.8,11.6,1.8"/><path id="path9337" class="cls-8" d="M291.5,308.3l-.4,4.5,4.2.7"/><path id="path9339" class="cls-7" d="M281,198.5c3.2,8.8,5.8,17.7,9.5,26.3,2.3,5.4,4.6,10.9,8,15.7,2.2,3.2,5.4,5.7,8,8.5l-.2-14-4.5,1,2.5-6.2-5.8-.2,3.5-4.3-5.2-.5,3.3-4.5-5.8-.2,4-5-6.5-.5,3.8-5-5.8-.5,3.5-4.7-5-.7,3.3-5.5-7-.2Z"/><path id="path9341" class="cls-11" d="M292,164.2c2.3-2.5,6.2-3.2,9.5-4.2a17.24,17.24,0,0,1,5.5-1,11.32,11.32,0,0,1,6,1.7,4.37,4.37,0,0,1,2,2.8,2.75,2.75,0,0,1-1.2,2.2,4.45,4.45,0,0,1-2.3.7c-1.2.4-2.6.1-3.8.7a5.5,5.5,0,0,0-2.4,2.6,7.14,7.14,0,0,0-.1,4.1,15,15,0,0,0,1.8,4.3l-.2,14.3c-2.8.3-5.8,1.2-8.8,1a8.67,8.67,0,0,1-5-1.5c-2.4-2.1-3-5.7-3.8-8.8a26.57,26.57,0,0,1-.5-9.7c.5-3.1,1.1-6.8,3.3-9.2Z"/><path id="path9343" class="cls-11" d="M260.8,207.5c4.5-1.8,8.1-3.4,12-5.2,3.4-1.6,6.7-3.4,10-5.2,3.1-1.7,6.7-3.6,9.2-5.2"/><path id="path9345" class="cls-11" d="M262.2,149.2c5.4,2.6,10.9,5.1,16.3,7.8,4.3,2.2,8.5,4.5,12.8,6.7"/><path id="path9347" class="cls-11" d="M286.5,161.5a88.94,88.94,0,0,0-2.8,11,40.28,40.28,0,0,0,0,11.5c.6,3.4,3.3,9.7,3.3,9.7L274.2,201l5.5-9-6-6,6.5-7.2-6-8.3,5.2-4.3-3.3-10Z"/><path id="path9349" class="cls-8" d="M264,151.3l7.5,12.2-6.5,6.3,6.2,8.5-6.5,8,5.7,5.8-7,13.5"/><path id="path9351" class="cls-8" d="M262.5,157.7l2.5,4-3.8,3"/><path id="path9353" class="cls-8" d="M260.5,174.8l3,3.8-3.3,4.3"/><path id="path9355" class="cls-8" d="M259.8,189.2l3.2,4.5-3.2,5"/><path id="path9357" class="cls-9" d="M266.7,213.7l11.3-5.5s3.4,11.4,5.5,17c1.8,4.7,3.5,9.6,6,14,2.9,5.1,10.5,14,10.5,14v52.3s-9.9-15.7-14-24A197.35,197.35,0,0,1,275,255a168.49,168.49,0,0,1-5.7-23.3C268.1,225.8,266.7,213.7,266.7,213.7Z"/><path id="path9359" class="cls-9" d="M264.7,56.5s.7,7.3,2.3,10.5a23.75,23.75,0,0,0,7,7.8,21.93,21.93,0,0,0,8.3,3.5,26.91,26.91,0,0,0,7.5,0,34.61,34.61,0,0,0,5-1s-3.2-1-4.2-2.2c-2.2-2.6-2.6-6.3-3.5-9.5s-1.2-6.6-2.3-9.8-2.1-6.6-4.3-9.2a11,11,0,0,0-4.5-3.2,14.33,14.33,0,0,0-3.3-.5Z"/><path id="path9361" class="cls-8" d="M269.5,49.5c1.2,4,2.2,7.8,4.3,11.3a41.41,41.41,0,0,0,6.5,8c1.6,1.6,3.3,3,5,4.5"/><path id="path9363" class="cls-8" d="M278.1,52.6c-1.8,1-5.7.1-7.7-.3-1.3,2.7-2.4,4.7-2.3,7.2"/><path id="path9365" class="cls-8" d="M279.7,57.2c-1.8,1-5.1.7-7.1.3-1.3,2.7-2.4,5.2-2.3,7.7"/><path id="path9367" class="cls-8" d="M282,63.3c-1.8,1-4.4.2-6.3-.1-1.3,2.7-1.1,5.1-1,7.5"/><path id="path9369" class="cls-8" d="M284.6,67.8c-1.8,1-2.9.1-4.9-.3-1.3,2.7-.6,3.7-.5,6.2"/><path id="path9371" class="cls-8" d="M270,48.4a8.79,8.79,0,0,0,5.3-.4"/><path id="path9373" class="cls-2" d="M149.9,141.6a3,3,0,0,0-2.1,1.8c-.1.9.9,1.7,1.6,2.2.4.3,1,.2,1.5.4s1.2.2,1.6.7.1,1.2.2,1.8c.4,1.5.6,3.3,1.7,4.3s2.5,1.1,3.9,1.3a20.85,20.85,0,0,0,3.5-.4,12.41,12.41,0,0,1,2.7-.3c.5.1,1,.1,1.3.4a2.22,2.22,0,0,1,.5,1.1,11.33,11.33,0,0,1,.1,2.6,12.92,12.92,0,0,0,.1,3.4,5.35,5.35,0,0,0,5.9,4.7,21.36,21.36,0,0,0,3.5-.6,11.73,11.73,0,0,1,2.7-.5c.4,0,.9,0,1.1.3.2.1.2.5.2.7a8.2,8.2,0,0,1-.2,2.2,10.12,10.12,0,0,0-.2,3,5.78,5.78,0,0,0,1.4,3.4,6.52,6.52,0,0,0,3.8,1.6,13.43,13.43,0,0,0,3.5-.3c1.5,0,3.2-.7,4.4.2.9.7.6,2.2.8,3.3a14.46,14.46,0,0,0,.5,3,6.54,6.54,0,0,0,2.2,3,5.18,5.18,0,0,0,3,.5,9.35,9.35,0,0,0,2.2-.7c.6-.2,1.3-.8,1.9-.5.2.1.2.3.2.5a10.56,10.56,0,0,1,.6,1.9,7.2,7.2,0,0,0,1,2.4,4.56,4.56,0,0,0,3.1,1.8,4.16,4.16,0,0,0,3-1.8,6.81,6.81,0,0,0,.8-2.4c.2-.6.3-1.2.5-1.8.1-.1.1-.3.2-.3s.4,0,.5,0a12.2,12.2,0,0,1,1.7.7,11.72,11.72,0,0,0,2.4.9,5.31,5.31,0,0,0,3.3-.6,5.65,5.65,0,0,0,1.8-3.4,16.08,16.08,0,0,0-.1-3.1,16.2,16.2,0,0,1-.1-2.2.75.75,0,0,1,.1-.5c.3-.2.7-.1,1.1-.1a10.27,10.27,0,0,1,2.4.5c1.1.4,2,1.2,3.1,1.3s2.3,0,2.8-.9-.3-2-.9-2.7c-1-1-2.5-1.1-3.8-1.5a13,13,0,0,0-3.3-.7,5.72,5.72,0,0,0-3.6.9,5.42,5.42,0,0,0-1.8,3.4,16.08,16.08,0,0,0,.1,3.1c0,.8.6,1.8.1,2.3s-1.2,0-1.8-.2a21.85,21.85,0,0,0-2.3-.9,6.87,6.87,0,0,0-3.2.2,6.36,6.36,0,0,0-2.2,2.4c-.4.7,0,2.2-.8,2.2s-.4-1.6-.8-2.3c-.6-1-1.2-2.1-2.2-2.4-1.6-.6-3.4.4-5.1.4-.6,0-1.5.2-1.9-.2-.6-.5-.2-1.5-.4-2.3-.6-2.1-.6-4.7-2.3-6.1-1.9-1.6-4.9-1-7.4-1a12.29,12.29,0,0,1-2.7.2c-.5-.1-1-.1-1.3-.5a1,1,0,0,1-.2-.7,16.35,16.35,0,0,1,.2-2.2,10.34,10.34,0,0,0,.2-3,5.43,5.43,0,0,0-1.6-3.4,6.76,6.76,0,0,0-3.9-1.3,14.27,14.27,0,0,0-3.5.6,25.58,25.58,0,0,1-2.7.5,2.34,2.34,0,0,1-1.2-.2c-.3-.2-.4-.7-.5-1.1a22.6,22.6,0,0,1-.1-2.6,19.33,19.33,0,0,0-.1-3.4,6.22,6.22,0,0,0-1.8-3.5,6.46,6.46,0,0,0-3.8-1.3,13.93,13.93,0,0,0-3.5.4,23.58,23.58,0,0,1-2.8.4c-.5,0-1.1,0-1.3-.4-.4-.4-.1-1-.2-1.5-.3-1.5-.4-3.1-1.3-4.3-.8-1-2.2-1.4-3.3-1.9a13.32,13.32,0,0,0-1.9-.5c-.5-.4-.7-.4-.8-.4Z"/><path id="path9375" class="cls-2" d="M150,153.1a2.15,2.15,0,0,0-1.9,1.4,2.05,2.05,0,0,0,.7,2.2l58.1,45.9a2.11,2.11,0,0,0,2.4,0L232,186.7a2,2,0,1,0-2.2-3.3l-21.6,15.1-57-45a2.14,2.14,0,0,0-1.2-.4Z"/><path id="path9377" d="M207.1,213.7v63.9l9.7-6.8.3-63.3Z"/><path id="path9379" class="cls-4" d="M148.5,167.9l21,16.9.3,54.4-21.3-14.5Z"/><path id="path9381" class="cls-12" d="M169.8,183.8l.6,56.2"/><path id="path9383" class="cls-12" d="M175.7,188l.3,57.3"/><path id="path9385" class="cls-12" d="M202.6,210.8l.3,68.4"/><path id="path9387" class="cls-8" d="M240.5,255.4l-36.4,24.2"/><path id="path9389" class="cls-12" d="M202.6,269.8l-26.3-26.9,26.5-25.7L176,189.7"/><path id="path9391" class="cls-12" d="M191.9,201.2l-16.1,16.4,26.8,27.9-15.2,14.2"/><path id="path9393" class="cls-12" d="M189,211.4l-4.9,5.3,4.9,5.8,5.1-5.3Z"/><path id="path9395" class="cls-12" d="M188.9,239.1l-4.3,4.7,4.9,4.9,4.3-4.6Z"/><path id="path9397" class="cls-13" d="M176.9,197.7l4.9,5.4-5.1,5.4Z"/><path id="path9399" class="cls-13" d="M202.1,225.7l-5.2,5.5,5.3,5.2Z"/><path id="path9401" class="cls-13" d="M176.6,225.7l4.8,5.2-4.9,4.5Z"/><path id="path9403" class="cls-13" d="M202.2,253.2l-4.6,4.7,4.9,4.7Z"/><path id="path9405" class="cls-8" d="M132.9,129.5c-7.1,3.5-14.2,7.1-21.2,10.6-5.1,2.6-10.2,5-15.2,7.8-7.2,3.9-14.4,7.9-21.2,12.4-6.4,4.2-12.5,8.9-18.7,13.4,4.1,5.5,8.2,11.1,12.4,16.6,3.6,4.6,7.5,9.1,10.9,13.8,3.2,4.4,6.1,9,9.2,13.4a68.39,68.39,0,0,1,7.4-2.1,77.08,77.08,0,0,1,15.2-.4,82.82,82.82,0,0,1,12,1.8,95.81,95.81,0,0,1,12.8,3.2,81.69,81.69,0,0,1,12.4,5.7,122.06,122.06,0,0,1,13.1,8.5,110.4,110.4,0,0,1,13.1,10.6c3.9,3.9,6.9,8.4,10.3,12.8,3.6,4.7,6.8,9.8,10.6,14.5a118.37,118.37,0,0,0,8.1,9.2,83.25,83.25,0,0,0,13.1,10.6,72.88,72.88,0,0,0,14.1,6.7,73.23,73.23,0,0,0,14.5,4.3c4.9.7,9.9,0,14.8,0-2.7-5.6-5.6-11-8.1-16.6-3.1-7.1-6.1-14.2-8.5-21.6a184,184,0,0,1-5.7-20.9c-1.5-7.2-2.4-14.6-3.2-21.9-.6-5.5-.9-11.1-1.1-16.6-.2-6.1,0-12.3,0-18.4.1-5.8.1-11.6.4-17.3.2-6,.7-12,1.1-18"/><path id="path9407" class="cls-2" d="M189.9,355.6,152,324.8l.3-62.7,3.9-2.7,6.8,6.8,10.3,13.9,8.6,12.1,3.9,4.1,4.7,3.9Z"/><path id="path9409" class="cls-2" d="M137.8,246.7l-24.8,18-2.4-4.7,21.3-16.9Z"/><path id="path9411" class="cls-2" d="M156.2,260l-36.1,23.7L118,279l33.7-22.2Z"/><path id="path9413" class="cls-4" d="M142.9,331.6l.3-63-24,15.7,3.9,17.8,2.7,17.1.6,16-.3,8.6Z"/><path id="path9415" d="M152.3,256.7,118,279.5s-2.4-6.1-3.5-9.2c-.7-1.8-2.1-5.6-2.1-5.6l25.4-18.4s6.5,2.1,9.2,4.1c2.2,1.8,5.3,6.3,5.3,6.3Z"/><path id="path9417" d="M212,372.3,152.8,325,126,342l.2,14-.7,13.3-.5,10.5,27.2-18.5,35,28.8,4.5,2.2,2.5,2.3,4,.5,2.3,3.3,3-.8,3,3.8h3l2.5,2.3Z"/><path id="path9419" d="M222,408.5l.2-89-6-2.2-5-2.8.2,89.3,3.3.5,3.2,3.3,2-.8Z"/><path id="path9421" class="cls-5" d="M100,331.8l-20.2,10s-3.9-11.1-6-16.5-4-11-6.7-16.2a58,58,0,0,0-6.3-10,91.71,91.71,0,0,0-8-8.2l.2-78.5s9.9,12,14,18.5c3.6,5.7,6.3,11.9,9.2,18,3.8,7.9,7.9,15.8,11,24a165.72,165.72,0,0,1,5,17c1.6,6,2.9,12,4,18,.8,4.4,1.3,8.9,2,13.3C98.8,324.6,100,331.8,100,331.8Z"/><path id="path9423" class="cls-2" d="M96.2,390.5,69,375.8l2.8-10.3-1-10-3-6.7,8-6,13.7-6,10.2-4.3,1,10v12l-.7,14-2.2,15.7Z"/><path id="path9425" class="cls-6" d="M133.5,243.2l-22.7,17s-4-8.7-6-13c-1.6-3.4-5-10.2-5-10.2s11.1-.7,16.5.2c5.9,1.1,17.2,6,17.2,6Z"/><path id="path9427" d="M30,157.3l16.9,14.6-.2,279.7-16.7.1V157.3Z"/><path id="path9429" class="cls-6" d="M264,391.4l-.2-66.8,6.9-2.1s11.2,15.6,16.9,23.4c4.2,5.6,8.7,10.9,12.8,16.6,1,1.4,2.8,4.2,2.8,4.2s-11.1,8.1-16.8,11.9c-4.1,2.7-8.2,5.2-12.4,7.6-3.2,1.8-10,5.2-10,5.2Z"/><path id="path9431" d="M247.7,399.5l.4-74.2s5.5.3,8.3.2,8.5-.9,8.5-.9l-.2,66.8s-6.3,3.4-9.5,4.9c-2.5,1.2-7.5,3.2-7.5,3.2Z"/><path id="path9433" class="cls-2" d="M154.8,475.9c7.1-.1,14.1.1,21.2-.4,5.9-.4,11.7-1,17.5-1.9,3.8-.6,7.5-1.6,11.3-2.3.6-4.1,1.2-8.3,1.8-12.4.6-4.7,1.1-9.3,1.7-14,.5-3.5.8-7,1.6-10.4.5-2.1,1.3-4,1.9-6l2.7-.4c.9.9,1.5,2.3,2.7,2.7a6.87,6.87,0,0,0,5-.9c2.1-1.1,3.6-3.2,4.9-5.3a17.07,17.07,0,0,0,2.5-6.6,9.49,9.49,0,0,0-.7-4.4,5.69,5.69,0,0,0-2.1-2.7c-1-.5-2.2,0-3.4,0a14.65,14.65,0,0,0-1.7-2.4c-1.2-1-2.8-1.3-4.3-1.9-.8-.9-1.2-2.2-2.3-2.7-.9-.4-2,0-3,0-.9-.8-1.5-2-2.7-2.5-.9-.4-2,0-3,0-1-1.2-1.6-2.9-3-3.5-1-.4-2.2.1-3.4.2-.9-1.1-1.4-2.6-2.7-3.2-1-.5-2.2,0-3.4,0a28.78,28.78,0,0,0-3.3-2.8,14,14,0,0,0-4.6-1.9,12.63,12.63,0,0,0-5.1-.4,12.4,12.4,0,0,0-5.1,2.3,15.42,15.42,0,0,0-4.2,4.6,28.73,28.73,0,0,0-3.5,7.8c-1.6,4.9-2.1,10.1-3,15.2-1.2,6.6-2,13.3-3.2,20s-2.4,13.2-3.7,19.8c-1.2,5.4-2.3,10.9-3.4,16.4Z"/><path id="path9435" class="cls-5" d="M228,510l-20-40s-10.2,2.7-15.4,3.5A203,203,0,0,1,168,476a250.64,250.64,0,0,1-30-1c-11.8-1.1-35-5-35-5L80,510Z"/><path id="path9437" class="cls-7" d="M213.2,508.5,198,479c-6.5,2.3-11.4,2.3-19.7,3.3l3.9,26.3h5.7l-5.1-22.7c4.7-.3,8.5-.3,12.6-1.9l11.1,24.7h6.7Z"/><path id="path9439" class="cls-7" d="M173.3,508.5l-3-25.3c-10.1.9-18.1,1.5-28.2.5l-5.5,24.8H143l3-19.8c7.9.5,12.6,0,19.2-.5l2.2,20.3Z"/><path id="path9441" class="cls-7" d="M126.7,508.5l7.3-25.1c-7.4-.6-18.1-1.6-26.1-3.5L94.2,508.4h6.3L111,485c4.5,1.2,12,1.7,16.5,2.4l-6.2,21.2h5.4Z"/><path id="path9443" class="cls-8" d="M155,475s3.5-16.7,5-25c1.8-10,2.9-20.1,5-30,1.4-6.7,1.6-14,5-20,2.3-4.1,5.4-8.8,10-10,4.4-1.2,10.2.2,13.3,3.6,2.6,2.9,3.1,7.8,1.7,11.4-1.4,3.9-5.3,8.3-9.5,8.2-4.4-.1-9.2-4.9-9.2-9.2,0-3.9,4.2-8.3,8.1-8.5A5.77,5.77,0,0,1,190,400c.4,2.8-2.2,6.8-5,6.8-1.7,0-4-2-2.9-4.1"/><path id="path9445" class="cls-8" d="M160.8,475.8c2.9-9,3.7-18.1,5.2-27.2s2-18.2,4.1-27.2c1.7-7.1,3.6-14.6,6.8-20.8"/><path id="path9447" class="cls-8" d="M167.5,475.8c2.2-7.8,2.9-16.1,4.1-24.1s1.6-15.9,3.2-23.7c1.1-5.7,1.9-11.3,4.3-16.7"/><path id="path9449" class="cls-8" d="M173.5,475.4c2-7.4,2.6-15.3,3.7-23,1.1-7.5,1.5-15.2,2.8-22.6,1-5.4,1.7-10.8,3.9-15.9"/><path id="path9451" class="cls-8" d="M179.3,474.8c1.8-7.1,2.3-14.6,3.3-21.9,1-7.1,1.3-14.4,2.5-21.5.9-5.1,1.5-10.3,3.5-15.1"/><path id="path9453" class="cls-8" d="M185,474.3c1.8-6.7,2.3-13.9,3.3-20.8s1.3-13.7,2.6-20.4c.9-4.9,1.5-9.8,3.5-14.4"/><path id="path9455" class="cls-8" d="M191.4,473.4c1.7-6.3,2.1-12.6,3-18.9s1.3-12.8,2.5-19c.9-4.5,1.5-9.1,3.4-13.4"/><path id="path9457" class="cls-8" d="M197.5,472.5c1.7-5.7,2.2-11.8,3-17.7s1.2-11.7,2.3-17.4c.8-4.1,1.4-8.3,3.2-12.3"/><path id="path9459" class="cls-8" d="M204.5,470.5c1.4-5.1,1.8-10.2,2.6-15.3s1-10.5,2-15.6c.7-3.7,1.2-7.5,2.7-11"/><path id="path9461" class="cls-8" d="M184.6,412.8c1.6,1.1,3.1,3.1,5,3.2,3.2.1,6.4-2.1,8.5-4.5a13.83,13.83,0,0,0,3.3-9.7,9,9,0,0,0-3.3-6.6c-1-.7-2-.5-3.6-.7"/><path id="path9463" class="cls-8" d="M191.1,416c1.3,1.5,2.4,2.7,4,2.8,3.2.2,6.4-2.1,8.5-4.5a13.58,13.58,0,0,0,3.3-9.6c-.1-2.4-1.2-5.3-3.3-6.6-1-.6-1.9-.7-3.5.1"/><path id="path9465" class="cls-8" d="M195.9,419c1.6,1.1,3.1,3.1,5,3.2,3.2.1,6.4-2.1,8.5-4.5a13.58,13.58,0,0,0,3.3-9.6,8.54,8.54,0,0,0-3.3-6.6c-.9-.6-1.6-.6-3.2-.1"/><path id="path9467" class="cls-8" d="M202.7,422.4c1.2,1.8,2.5,2.7,4.1,2.8,3.2.1,6.4-2.1,8.5-4.5a14.05,14.05,0,0,0,3.3-9.6,9.4,9.4,0,0,0-3.3-6.6,3.64,3.64,0,0,0-3.4-.5"/><path id="path9469" class="cls-8" d="M208.4,425.7a4.43,4.43,0,0,0,3.8,2.6c3.2.2,6.4-2.1,8.5-4.5a14.4,14.4,0,0,0,3.4-9.7,9,9,0,0,0-3.3-6.5c-.7-.6-1.2-.2-2.7-.4"/><path id="path9471" class="cls-8" d="M214.3,428.3a3.31,3.31,0,0,0,3.1,2.5c3.2.3,6.4-2,8.5-4.5a14.56,14.56,0,0,0,3.3-9.6,6.63,6.63,0,0,0-2-5c-1.1-1-2.6-1-4.1-1.1"/><path id="path9473" class="cls-8" d="M103.2,469.5c.9-10.2,1.5-20.3,2.5-30.4.6-5.5,1.1-11.1,2-16.6,1.3-7.3,1.6-15,5-21.5a31.63,31.63,0,0,1,8.9-10,29.55,29.55,0,0,1,10.9-5.5,28.64,28.64,0,0,1,12.7-.2c4.1.9,7.8,3.2,11.6,5.2,4.7,2.5,8.9,5.7,13.4,8.6"/><path id="path9475" class="cls-8" d="M157,456.1c-3.9,1.1-7.8,2.8-11.8,3.4-2.6.4-5.4.9-8,.2-1.3-.4-3.6-1.4-3.4-2.2.1-.4.7-.3,1.1-.3,1.5,0,2.8.9,4.3,1.1a29.13,29.13,0,0,0,6.6,0c3.9-.3,7.5-1.4,11.2-2.2Z"/><path id="path9477" class="cls-8" d="M135,447.8c-.5.5-1.7.9-1.3,1.5a16.65,16.65,0,0,0,5.2,3.3,16.09,16.09,0,0,0,5.8,1,18.89,18.89,0,0,0,6.2-.8,26.58,26.58,0,0,0,4-1.7"/><path id="path9479" class="cls-8" d="M159.2,446.6c-3.3.9-6.6,2.1-10,2.5a22.36,22.36,0,0,1-7.3-.1,15.51,15.51,0,0,1-5.5-2.2,12,12,0,0,1-2.7-2.8,43.09,43.09,0,0,1,4.9-2.2,23.76,23.76,0,0,1,8.4-.7,20.85,20.85,0,0,1,6.8,2.2A48.6,48.6,0,0,1,159.2,446.6Z"/><path id="path9481" class="cls-8" d="M150.8,448.1c-.1-1.2.3-2.5-.2-3.5a6.12,6.12,0,0,0-3.4-2.5,5.32,5.32,0,0,0-3.3,0,5.42,5.42,0,0,0-2.4,2.1c-.7,1.2-.6,2.8-.9,4.2"/><path id="path9483" class="cls-7" d="M147,447.2a1.21,1.21,0,0,0-.1-1.4,1.5,1.5,0,0,0-2.6-.1c-.3.5-.5,1.2-.1,1.6a2.13,2.13,0,0,0,2.8-.1Z"/><path id="path9485" class="cls-7" d="M151.1,436.1a59.62,59.62,0,0,0-8.4,2c-2.4.9-4.6,2.7-6.7,3.6"/><path id="path9487" class="cls-8" d="M122.8,453.5a27.17,27.17,0,0,0,1.8-4.4c.6-3.2.1-6.5-.2-9.8-.5-4-1.9-7.8-2.6-11.8-.4-2.3-1.5-4.6-.9-6.9a5.43,5.43,0,0,1,1.9-2.8,16.54,16.54,0,0,1,3.6-2.2"/><path id="path9489" class="cls-8" d="M136.1,428.7c1.6-1.7,3.8-2.9,4.7-5.1a4.2,4.2,0,0,0,0-3.3,3.82,3.82,0,0,0-6-1.7c-1.2.6-1.9,2.1-3.1,2.6a4.12,4.12,0,0,1-2.8.6,1,1,0,0,1-.6-.8c.3-1,2-.8,2.9-1.1,1.3-.5,2.6-.9,3.9-1.4"/><path id="path9491" class="cls-7" d="M143.7,407.6c-1.6.8-3.9.6-5.8.6s-3.9-1-5.8-.9c-2.2.1-4.3,1.6-6.6,1.6a17.76,17.76,0,0,1-4.8-1.1,3.24,3.24,0,0,0,0-1.7c1.6.6,4,1.5,6,1.2s3.3-2.4,5.2-2.5c2.2-.1,4,2.5,6.2,2.6s4.4-1.6,6.1-2a4.66,4.66,0,0,0-.5,2.2Z"/><path id="path9493" class="cls-8" d="M139.7,400.6c-1.6-.7-3.1-1.7-4.8-2a12.75,12.75,0,0,0-3.9,0,9.89,9.89,0,0,0-2.4.9c-.7.3-1.5.7-2.2,1"/><path id="path9495" class="cls-8" d="M128.2,395.6a9.07,9.07,0,0,0,3.4.9,6.94,6.94,0,0,0,2.8-.8"/><path id="path9497" class="cls-7" d="M121.7,456.4c-1.6,1.8-5,2.3-7.7,2.5a16.47,16.47,0,0,1-5.8-1,27.06,27.06,0,0,1-3.9-1.7c2.2.4,4.4,1.2,6.6,1.3a28.91,28.91,0,0,0,5.8-.8,18,18,0,0,0,3.8-1.6c.5-.2,1.6.9,1.2,1.3Z"/><path id="path9499" class="cls-8" d="M122.3,449.6a32.9,32.9,0,0,1-4.6,2.3,16.4,16.4,0,0,1-7.3.6c-1.6-.3-2.9-1.3-4.4-2"/><path id="path9501" class="cls-8" d="M123.3,446.4a26.53,26.53,0,0,1-5.7,1.5,25.74,25.74,0,0,1-6.8.1,10.86,10.86,0,0,1-3.9-1.1,10.22,10.22,0,0,1-1.8-1.8l.4-2.7a21.72,21.72,0,0,1,3.6-1.2,21.8,21.8,0,0,1,5.1-.2,17.59,17.59,0,0,1,5.5.9,13.76,13.76,0,0,1,3.6,2.3c.4.3.6.7,1,1-.4.3-.5.9-1,1.2Z"/><path id="path9503" class="cls-8" d="M118.9,447.1c-.1-1.2.3-2.5-.2-3.5a6.12,6.12,0,0,0-3.4-2.5,4.69,4.69,0,0,0-3.3,0,4.87,4.87,0,0,0-2.4,2.1c-.7,1.2-.6,2.8-.9,4.2"/><path id="path9505" class="cls-7" d="M115.4,446.2a1.21,1.21,0,0,0-.1-1.4,1.83,1.83,0,0,0-1.3-.8,1.56,1.56,0,0,0-1.3.7c-.3.5-.5,1.3-.1,1.7a2.26,2.26,0,0,0,2.8-.2Z"/><path id="path9507" class="cls-8" d="M122.5,440.9a37.91,37.91,0,0,0-3.8-4.2,30.47,30.47,0,0,0-4-2.1"/><path id="path9509" class="cls-9" d="M106.4,431.4a24.93,24.93,0,0,0-2.6-7c-1.3-2.1-2.7-4.3-4.8-5.6a8.65,8.65,0,0,0-5.6-1.7,6.57,6.57,0,0,0-4.7,2.4,8.05,8.05,0,0,0-1.2,5.3,7.65,7.65,0,0,0,1.7,4.6,6.55,6.55,0,0,0,3.9,2.1,3.7,3.7,0,0,0,2.9-.8,3,3,0,0,0,.8-2.2c0-.9.1-1.7-1-2.3.8.3,1.3,1.3,1.9,2.1a23.7,23.7,0,0,1,1.9,3.5,32.55,32.55,0,0,1,1.5,4.4c.5,2,.9,4.1,1.3,6.1.7,3.2,1.5,7.1,2.1,9.6C105.1,446.2,105.8,437,106.4,431.4Z"/><path id="path9511" class="cls-9" d="M109.2,411.4a47.31,47.31,0,0,0-4.9-12.4,18.56,18.56,0,0,0-4.8-5.6c-1.6-1.2-3.5-2.5-5.5-2.3a7.13,7.13,0,0,0-4.9,3,8.71,8.71,0,0,0-1.2,5.2,7.94,7.94,0,0,0,1.7,4.7,6.55,6.55,0,0,0,3.9,2.1,3.7,3.7,0,0,0,2.9-.8,3,3,0,0,0,.8-2.2c-.1-.8,0-1.6-1.1-2.2a4.69,4.69,0,0,1,1.9,1.8,17,17,0,0,1,1.9,3.5c.6,1.4,1,2.9,1.5,4.4.5,1.7,1,3.5,1.6,5.2,1.2,4.1,3,9.7,3.5,12.3.7-5.5,2.1-11.1,2.7-16.7Z"/><path id="path9513" class="cls-9" d="M111.4,403.6a33.13,33.13,0,0,0-1.6-4.2c-.7-1.5-2.6-4.4-2.6-4.4s-3.2-1.5-4.9-2.1-4.7-1.5-4.7-1.5a40.32,40.32,0,0,1,5.1,4.7,22.64,22.64,0,0,1,3,5.2,53.14,53.14,0,0,1,2,5.6c.6,1.7,1.6,5.1,1.6,5.1s.6-3.3,1-5c.3-1.1,1.1-3.4,1.1-3.4Z"/><path id="path9515" class="cls-9" d="M107.2,395l6.8,3.9-2.6,4.7Z"/><path id="path9517" class="cls-9" d="M177.6,390.8l-24.9-20.7-28.1,18.5.7-9,27-18.6,35.1,29a13.08,13.08,0,0,0-9.8.8Z"/><path id="path9519" class="cls-8" d="M247.7,381.5l-9.4-10.6,9.2-9.7"/><path id="path9521" class="cls-8" d="M247.4,375.1l-3.4-3.9,3.4-3.5"/><path id="path9523" class="cls-7" d="M234.5,393.5l9.4-9.7-9-9.9-9.1,9.9Zm.2-4.2-5.4-5,5.4-5.9,5.2,5.2Z"/><path id="path9525" class="cls-9" d="M30,488l38-36H30Z"/><path id="path9527" class="cls-5" d="M30,480l23-22H30Z"/><path id="path9529" class="cls-8" d="M248.3,355.9l-9.4-10.6,9.2-9.7"/><path id="path9531" class="cls-8" d="M248,349.4l-3.4-3.9L248,342"/><path id="path9533" class="cls-8" d="M222.8,380.4l9.2-9.9-9.2-9.7"/><path id="path9535" class="cls-8" d="M223,374.7l3.4-3.9-3.4-3.5"/><path id="path9537" class="cls-8" d="M223.5,336.3l8.6,9.3-9.2,9.7"/><path id="path9539" class="cls-8" d="M223.2,341.4l3.3,3.9-3.3,3.5"/><path id="path9541" class="cls-7" d="M235.5,367.7l9.4-9.7-9-9.9-9.5,10.1Zm.2-4.2-5.4-5,5.4-5.9,5.2,5.2Z"/><path id="path9543" class="cls-7" d="M235.1,342.4l9.3-9.7-9-9.6-9.7,9.4Zm.1-4.2-5.4-5,5.4-5.9,5.2,5.1Z"/><path id="path9545" class="cls-8" d="M222.6,387.7l8.4,9.1-7.8,8.4"/><path id="path9547" class="cls-8" d="M222.8,393l3.4,3.5-2.8,3.3"/><path id="path9549" class="cls-8" d="M247.4,385.8l-10,10.4,5.7,6.1"/><path id="path9551" class="cls-8" d="M247,392.2l-3.4,3.9,3.4,3.5"/><path id="path9553" class="cls-5" d="M248.2,329.7l-3.9-4.6"/><path id="path9555" class="cls-5" d="M222.5,329.9l7.1-7.3"/><path id="path9557" class="cls-5" d="M247.9,399.2l.7-74.1"/><path id="path9559" class="cls-5" d="M222.3,408.3l.2-88.9"/><path id="path9561" class="cls-7" d="M238.8,403.8l-4.4-4.4-8.5,8.4,1.3,2.3Z"/><path id="path9563" class="cls-9" d="M53,452V381l-6-2v73Z"/><path id="path9565" class="cls-9" d="M47,172V374h6V170L30,150v7Z"/><path id="path9567" class="cls-2" d="M38.5,450a2.5,2.5,0,0,0,0-5,2.5,2.5,0,0,0,0,5Z"/><path id="path9569" class="cls-2" d="M38.5,436a2.5,2.5,0,0,0,0-5,2.5,2.5,0,0,0,0,5Z"/><path id="path9571" class="cls-2" d="M35.5,443a2.5,2.5,0,0,0,0-5,2.5,2.5,0,0,0,0,5Z"/><path id="path9573" class="cls-2" d="M41.5,443a2.5,2.5,0,0,0,0-5,2.5,2.5,0,0,0,0,5Z"/><path id="path9575" class="cls-2" d="M38.3,401.2a2.5,2.5,0,1,0,0-5,2.77,2.77,0,0,0-2.5,2.5A3,3,0,0,0,38.3,401.2Z"/><path id="path9577" class="cls-2" d="M38.3,387.2a2.5,2.5,0,1,0,0-5,2.77,2.77,0,0,0-2.5,2.5A2.87,2.87,0,0,0,38.3,387.2Z"/><path id="path9579" class="cls-2" d="M35.4,394.2a2.5,2.5,0,0,0,0-5,2.77,2.77,0,0,0-2.5,2.5A2.69,2.69,0,0,0,35.4,394.2Z"/><path id="path9581" class="cls-2" d="M41.4,394.2a2.5,2.5,0,0,0,0-5,2.77,2.77,0,0,0-2.5,2.5A2.69,2.69,0,0,0,41.4,394.2Z"/><path id="path9583" class="cls-2" d="M38.6,352.5a2.5,2.5,0,1,0,0-5A2.87,2.87,0,0,0,36,350,3,3,0,0,0,38.6,352.5Z"/><path id="path9585" class="cls-2" d="M38.6,338.5a2.5,2.5,0,1,0,0-5A2.87,2.87,0,0,0,36,336,3,3,0,0,0,38.6,338.5Z"/><path id="path9587" class="cls-2" d="M35.5,345.5a2.5,2.5,0,0,0,0-5A2.77,2.77,0,0,0,33,343,2.87,2.87,0,0,0,35.5,345.5Z"/><path id="path9589" class="cls-2" d="M41.5,345.5a2.5,2.5,0,0,0,0-5A2.77,2.77,0,0,0,39,343,2.87,2.87,0,0,0,41.5,345.5Z"/><path id="path9591" class="cls-2" d="M38.7,302.9a2.5,2.5,0,0,0,0-5,2.77,2.77,0,0,0-2.5,2.5A2.87,2.87,0,0,0,38.7,302.9Z"/><path id="path9593" class="cls-2" d="M38.7,288.9a2.5,2.5,0,0,0,0-5,2.77,2.77,0,0,0-2.5,2.5A2.87,2.87,0,0,0,38.7,288.9Z"/><path id="path9595" class="cls-2" d="M35.8,295.9a2.5,2.5,0,1,0,0-5,2.77,2.77,0,0,0-2.5,2.5A2.69,2.69,0,0,0,35.8,295.9Z"/><path id="path9597" class="cls-2" d="M41.7,295.9a2.5,2.5,0,0,0,0-5,2.77,2.77,0,0,0-2.5,2.5A2.87,2.87,0,0,0,41.7,295.9Z"/><path id="path9599" class="cls-2" d="M38.7,254.5a2.5,2.5,0,0,0,0-5,2.77,2.77,0,0,0-2.5,2.5A2.87,2.87,0,0,0,38.7,254.5Z"/><path id="path9601" class="cls-2" d="M38.7,240.5a2.5,2.5,0,0,0,0-5,2.77,2.77,0,0,0-2.5,2.5A2.87,2.87,0,0,0,38.7,240.5Z"/><path id="path9603" class="cls-2" d="M35.8,247.5a2.5,2.5,0,1,0,0-5,2.77,2.77,0,0,0-2.5,2.5A2.61,2.61,0,0,0,35.8,247.5Z"/><path id="path9605" class="cls-2" d="M41.7,247.5a2.5,2.5,0,0,0,0-5,2.77,2.77,0,0,0-2.5,2.5A2.87,2.87,0,0,0,41.7,247.5Z"/><path id="path9607" class="cls-2" d="M39.3,205.9a2.5,2.5,0,0,0,0-5,2.5,2.5,0,1,0,0,5Z"/><path id="path9609" class="cls-2" d="M39.3,191.9a2.5,2.5,0,0,0,0-5,2.5,2.5,0,1,0,0,5Z"/><path id="path9611" class="cls-2" d="M36.3,199a2.5,2.5,0,1,0,0-5,2.5,2.5,0,0,0,0,5Z"/><path id="path9613" class="cls-2" d="M42.3,199a2.5,2.5,0,1,0,0-5,2.5,2.5,0,0,0,0,5Z"/><path id="path9615" class="cls-2" d="M45,413v5L32,430v-5Z"/><path id="path9617" class="cls-2" d="M45,405v5L32,422v-5Z"/><path id="path9619" class="cls-2" d="M45,363v5L32,380v-5Z"/><path id="path9621" class="cls-2" d="M45,355v5L32,372v-5Z"/><path id="path9623" class="cls-2" d="M45,313v5L32,330v-5Z"/><path id="path9625" class="cls-2" d="M45,305v5L32,322v-5Z"/><path id="path9627" class="cls-2" d="M45,265v5L32,282v-5Z"/><path id="path9629" class="cls-2" d="M45,257v5L32,274v-5Z"/><path id="path9631" class="cls-2" d="M45,218v5L32,235v-5Z"/><path id="path9633" class="cls-2" d="M45,210v5L32,227v-5Z"/><path id="path9635" class="cls-2" d="M44.9,171.7,45,173,32,185v-5l10-9.9Z"/><path id="path9637" class="cls-2" d="M38.2,166.5l2.4,2L32,177v-5Z"/><path id="path9639" class="cls-7" d="M112.5,369l9.4-9.7-9-9.9-9.7,9.7Zm.2-4.2-5.4-5,5.4-5.8,5.2,5.1Z"/><path id="path9641" class="cls-7" d="M108.8,396.5l10.5-8.5-7.7-10.9-10.8,8.4Zm.7-4.1-4.6-5.6,6.1-5.1,4.5,5.8Z"/><path id="path9643" class="cls-7" d="M112.9,343.2l8.3-9.9-10-8.2-8.4,9.9Zm-.3-3.9-5.8-4.1,4.7-6,5.7,4.3Z"/><path id="path9645" class="cls-7" d="M110.4,319.8l7.8-11-10.3-8.5-8.2,11Zm-.5-4.2-6-4.1,4.4-6.6,5.9,4.3Z"/><path id="path9647" class="cls-7" d="M106.2,294l6-12-11.5-6.8-6.4,12.2Zm-1.1-4.1-6.6-3.2,3.4-7.2,6.5,3.4Z"/><path id="path9649" class="cls-7" d="M99,268.6l4.9-12.6-12.1-5.7L86.5,263Zm-1.5-4L90.7,262l2.7-7.5,6.8,2.7Z"/><path id="path9651" class="cls-7" d="M88.2,242.9l2.4-13.3-13-3.3L75,239.8ZM86,239.4l-7.2-1.2,1.2-7.8,7.2,1.4Z"/><path id="path9653" class="cls-7" d="M74.8,219.2l1.3-13.4-13.2-2.2-1.5,13.6Zm-2.5-3.4-7.3-.6.5-7.9,7.3.8Z"/><path id="path9655" class="cls-8" d="M98.8,381.2,109,373l-8.1-10"/><path id="path9657" class="cls-8" d="M99.5,376l3.8-3.3-2.9-3.6"/><path id="path9659" class="cls-8" d="M97.5,390.5s1.5-12.3,2-18.5c.7-8.6,1.8-17.1,1.7-25.8a189.89,189.89,0,0,0-2-22.5,234.38,234.38,0,0,0-4-23.7,237,237,0,0,0-7.5-25.8,207.3,207.3,0,0,0-9.5-22.3,239.52,239.52,0,0,0-12.7-22.7C62,223.7,54,213,54,213"/><path id="path9661" class="cls-8" d="M125,363.9l-10.6,11.3,9.5,11.4"/><path id="path9663" class="cls-8" d="M124.5,370.4l-4.5,4.7,4.2,5.2"/><path id="path9665" class="cls-8" d="M101.5,355.4l8.5-8.2-7.9-8.7"/><path id="path9667" class="cls-8" d="M101.8,350.6l3.2-3.3-2.9-3.2"/><path id="path9669" class="cls-8" d="M125.9,334l-10.2,11.7,9.9,11.1"/><path id="path9671" class="cls-8" d="M125.7,340.5l-4.4,4.9,4.4,5"/><path id="path9673" class="cls-8" d="M123.2,308.7l-9,12.7,10.9,10"/><path id="path9675" class="cls-8" d="M123.6,315.2l-3.8,5.3,4.9,4.6"/><path id="path9677" class="cls-8" d="M118.4,283.3,111,297l12,8.7"/><path id="path9679" class="cls-8" d="M119.6,289.7l-3.2,5.7,5.4,4"/><path id="path9681" class="cls-8" d="M108,257.2l-5.3,14.6,13.2,6.8"/><path id="path9683" class="cls-8" d="M110.2,263.4l-2.3,6.2,5.9,3.1"/><path id="path9685" class="cls-8" d="M95.5,230.8,92,246l13.9,5.1"/><path id="path9687" class="cls-8" d="M98.3,236.7l-1.5,6.4,6.2,2.4"/><path id="path9689" class="cls-10" d="M80.7,206.6l-2,15.4,13.2,3.9"/><path id="path9691" class="cls-10" d="M83.8,212.2l-.9,6.5,5.9,1.8"/><path id="path9693" class="cls-10" d="M62.8,183.3l.7,16.1,13.7,1.5"/><path id="path9695" class="cls-10" d="M66.9,188.9l.2,6.5,6.1.7"/><path id="path9697" class="cls-8" d="M99.2,236.3c-4-6.7-7.8-13.5-12-20-5.4-8.4-10.9-16.8-17-24.7-5.2-6.7-11-12.9-16.5-19.3"/><path id="path9699" class="cls-8" d="M59.2,179.8l-5.7-.7"/><path id="path9701" class="cls-7" d="M53.8,183l5.5,1.2-.5,14.5-5-1.2Z"/><path id="path9703" class="cls-8" d="M57.8,216.7l1-13-5-1.2"/><path id="path9705" class="cls-8" d="M100.3,332.2l7.5-9.3-9-7.6"/><path id="path9707" class="cls-8" d="M100,327.3l2.7-3.6-3.3-2.8"/><path id="path9709" class="cls-8" d="M98,307.6l5.7-10.4-10.1-6"/><path id="path9711" class="cls-8" d="M96.9,302.8l2.1-4-3.7-2.2"/><path id="path9713" class="cls-8" d="M91.5,283.2l4.9-10.8-10.6-5.1"/><path id="path9715" class="cls-8" d="M90,278.5l1.7-4.2-3.9-1.8"/><path id="path9717" class="cls-8" d="M83.3,258.8l2.9-11.5-11.3-3.2"/><path id="path9719" class="cls-8" d="M81,254.4l1-4.4-4.1-1.1"/><path id="path9721" class="cls-8" d="M71.3,235.7l1.6-11.8-11.6-1.8"/><path id="path9723" class="cls-8" d="M68.5,231.7l.4-4.5-4.2-.7"/><path id="path9725" class="cls-7" d="M79,341.5c-3.2-8.8-5.8-17.7-9.5-26.3-2.3-5.4-4.6-10.9-8-15.7-2.2-3.2-5.4-5.7-8-8.5l.2,14,4.5-1-2.5,6.2,5.8.2L58,314.7l5.2.5-3.3,4.5,5.8.2-4,5,6.5.5-3.8,5,5.8.5-3.5,4.7,5,.7-3.3,5.5,7,.2Z"/><path id="path9727" class="cls-11" d="M68,375.8c-2.3,2.5-6.2,3.2-9.5,4.2a17.24,17.24,0,0,1-5.5,1,11.32,11.32,0,0,1-6-1.7,4.37,4.37,0,0,1-2-2.8,2.75,2.75,0,0,1,1.2-2.2,4.45,4.45,0,0,1,2.3-.7c1.2-.4,2.6-.1,3.8-.7a5.5,5.5,0,0,0,2.4-2.6,7.14,7.14,0,0,0,.1-4.1,15,15,0,0,0-1.8-4.3l.2-14.3c2.8-.3,5.8-1.2,8.8-1a8.67,8.67,0,0,1,5,1.5c2.4,2.1,3,5.7,3.8,8.8a26.57,26.57,0,0,1,.5,9.7c-.5,3.1-1.1,6.8-3.3,9.2Z"/><path id="path9729" class="cls-11" d="M99.2,332.5c-4.5,1.8-8.1,3.4-12,5.2-3.4,1.6-6.7,3.4-10,5.2-3.1,1.7-6.7,3.6-9.2,5.2"/><path id="path9731" class="cls-11" d="M97.8,390.8c-5.4-2.6-10.9-5.1-16.3-7.8-4.3-2.2-8.5-4.5-12.8-6.7"/><path id="path9733" class="cls-11" d="M73.5,378.5a88.94,88.94,0,0,0,2.8-11,40.28,40.28,0,0,0,0-11.5c-.6-3.4-3.3-9.7-3.3-9.7L85.8,339l-5.5,9,6,6-6.5,7.2,6,8.3-5.2,4.3,3.3,10Z"/><path id="path9735" class="cls-8" d="M96,388.7l-7.5-12.2,6.5-6.3-6.2-8.5,6.5-8-5.7-5.8,7-13.5"/><path id="path9737" class="cls-8" d="M97.5,382.3l-2.5-4,3.8-3"/><path id="path9739" class="cls-8" d="M99.5,365.2l-3-3.8,3.3-4.3"/><path id="path9741" class="cls-8" d="M100.2,350.8,97,346.3l3.2-5"/><path id="path9743" class="cls-9" d="M93.3,326.3,82,331.8s-3.4-11.4-5.5-17c-1.8-4.7-3.5-9.6-6-14-2.9-5.1-10.5-14-10.5-14V234.5s9.9,15.7,14,24A197.35,197.35,0,0,1,85,285a168.49,168.49,0,0,1,5.7,23.3C91.9,314.2,93.3,326.3,93.3,326.3Z"/><path id="path9745" class="cls-9" d="M95.3,483.5s-.7-7.3-2.3-10.5a23.75,23.75,0,0,0-7-7.8,21.93,21.93,0,0,0-8.3-3.5,26.91,26.91,0,0,0-7.5,0,34.61,34.61,0,0,0-5,1s3.2,1,4.3,2.2c2.2,2.6,2.6,6.3,3.5,9.5s1.2,6.6,2.3,9.8,2.1,6.6,4.3,9.2a11,11,0,0,0,4.5,3.2,14.33,14.33,0,0,0,3.3.5Z"/><path id="path9747" class="cls-8" d="M90.5,490.5c-1.2-4-2.2-7.8-4.3-11.3a41.41,41.41,0,0,0-6.5-8c-1.6-1.6-3.3-3-5-4.5"/><path id="path9749" class="cls-8" d="M81.9,487.4c1.8-1,5.7-.1,7.7.3,1.3-2.7,2.4-4.7,2.3-7.2"/><path id="path9751" class="cls-8" d="M80.3,482.8c1.8-1,5.1-.7,7.1-.3,1.3-2.7,2.4-5.2,2.3-7.7"/><path id="path9753" class="cls-8" d="M78,476.7c1.8-1,4.4-.2,6.3.1,1.3-2.7,1.1-5.1,1-7.5"/><path id="path9755" class="cls-8" d="M75.4,472.2c1.8-1,2.9-.1,4.9.3,1.3-2.7.6-3.7.5-6.2"/><path id="path9757" class="cls-8" d="M90,491.6a8.79,8.79,0,0,0-5.3.4"/><path id="path9759" class="cls-2" d="M210.1,398.4a3,3,0,0,0,2.1-1.8c.1-.9-.9-1.7-1.6-2.2-.4-.3-1-.2-1.5-.4s-1.2-.2-1.6-.7-.1-1.2-.2-1.8c-.4-1.5-.6-3.3-1.7-4.3s-2.5-1.1-3.9-1.3a20.85,20.85,0,0,0-3.5.4,12.41,12.41,0,0,1-2.7.3c-.5-.1-1-.1-1.3-.4a2.22,2.22,0,0,1-.5-1.1,11.33,11.33,0,0,1-.1-2.6,12.92,12.92,0,0,0-.1-3.4,5.35,5.35,0,0,0-5.9-4.7,21.36,21.36,0,0,0-3.5.6,11.73,11.73,0,0,1-2.7.5c-.4,0-.9,0-1.1-.3-.2-.1-.2-.5-.2-.7a8.2,8.2,0,0,1,.2-2.2,10.12,10.12,0,0,0,.2-3,5.78,5.78,0,0,0-1.4-3.4,6.52,6.52,0,0,0-3.8-1.6,13.43,13.43,0,0,0-3.5.3c-1.5,0-3.2.7-4.4-.2-.9-.7-.6-2.2-.8-3.3a14.46,14.46,0,0,0-.5-3,6.54,6.54,0,0,0-2.2-3,5.18,5.18,0,0,0-3-.5,9.35,9.35,0,0,0-2.2.7c-.6.2-1.3.8-1.9.5-.2-.1-.2-.3-.2-.5a10.56,10.56,0,0,1-.6-1.9,7.2,7.2,0,0,0-1-2.4,4.56,4.56,0,0,0-3.1-1.8,4.16,4.16,0,0,0-3,1.8,6.81,6.81,0,0,0-.8,2.4c-.2.6-.3,1.2-.5,1.8-.1.1-.1.3-.2.3s-.4,0-.5,0a12.2,12.2,0,0,1-1.7-.7,11.72,11.72,0,0,0-2.4-.9,5.31,5.31,0,0,0-3.3.6,5.65,5.65,0,0,0-1.8,3.4,16.08,16.08,0,0,0,.1,3.1,16.2,16.2,0,0,1,.1,2.2.75.75,0,0,1-.1.5c-.3.2-.7.1-1.1.1a10.27,10.27,0,0,1-2.4-.5c-1.1-.4-2-1.2-3.1-1.3s-2.3,0-2.8.9.3,2,.9,2.7c1,1,2.5,1.1,3.8,1.5a13,13,0,0,0,3.3.7,5.72,5.72,0,0,0,3.6-.9,5.42,5.42,0,0,0,1.8-3.4,16.08,16.08,0,0,0-.1-3.1c0-.8-.6-1.8-.1-2.3s1.2,0,1.8.2a21.85,21.85,0,0,0,2.3.9,6.87,6.87,0,0,0,3.2-.2,6.36,6.36,0,0,0,2.2-2.4c.4-.7,0-2.2.8-2.2s.4,1.6.8,2.3c.6,1,1.2,2.1,2.2,2.4,1.6.6,3.4-.4,5.1-.4.6,0,1.5-.2,1.9.2.6.5.2,1.5.4,2.3.6,2.1.6,4.7,2.3,6.1,1.9,1.6,4.9,1,7.4,1a12.29,12.29,0,0,1,2.7-.2c.5.1,1,.1,1.3.5a1,1,0,0,1,.2.7,16.35,16.35,0,0,1-.2,2.2,10.34,10.34,0,0,0-.2,3,5.43,5.43,0,0,0,1.6,3.4,6.76,6.76,0,0,0,3.9,1.3,14.27,14.27,0,0,0,3.5-.6,25.58,25.58,0,0,1,2.7-.5,2.34,2.34,0,0,1,1.2.2c.3.2.4.7.5,1.1a22.6,22.6,0,0,1,.1,2.6,19.33,19.33,0,0,0,.1,3.4,6.22,6.22,0,0,0,1.8,3.5,6.46,6.46,0,0,0,3.8,1.3,13.93,13.93,0,0,0,3.5-.4,23.58,23.58,0,0,1,2.8-.4c.5,0,1.1,0,1.3.4.4.4.1,1,.2,1.5.3,1.5.4,3.1,1.3,4.3.8,1,2.2,1.4,3.3,1.9a13.32,13.32,0,0,0,1.9.5c.5.4.7.4.8.4Z"/><path id="path9761" class="cls-2" d="M210,386.9a2.15,2.15,0,0,0,1.9-1.4,2.05,2.05,0,0,0-.7-2.2L153,337.4a2.11,2.11,0,0,0-2.4,0l-22.7,15.9a2,2,0,1,0,2.2,3.3l21.6-15.1,57,45a2.84,2.84,0,0,0,1.3.4Z"/><path id="path9763" d="M152.9,326.3V262.4l-9.7,6.8-.3,63.3Z"/><path id="path9765" class="cls-4" d="M211.5,372.1l-21-16.9-.3-54.4,21.3,14.5Z"/><path id="path9767" class="cls-12" d="M190.2,356.2l-.6-56.2"/><path id="path9769" class="cls-12" d="M184.3,352l-.3-57.3"/><path id="path9771" class="cls-12" d="M157.4,329.2l-.3-68.4"/><path id="path9773" class="cls-8" d="M119.5,284.6l36.4-24.2"/><path id="path9775" class="cls-12" d="M157.4,270.2l26.3,26.9-26.5,25.7L184,350.3"/><path id="path9777" class="cls-12" d="M168.1,338.8l16.1-16.4-26.8-27.9,15.2-14.2"/><path id="path9779" class="cls-12" d="M171,328.6l4.9-5.3-4.9-5.8-5.1,5.3Z"/><path id="path9781" class="cls-12" d="M171.1,300.9l4.3-4.7-4.9-4.9-4.3,4.6Z"/><path id="path9783" class="cls-13" d="M183.1,342.3l-4.9-5.4,5.1-5.4Z"/><path id="path9785" class="cls-13" d="M157.9,314.3l5.2-5.5-5.3-5.2Z"/><path id="path9787" class="cls-13" d="M183.4,314.3l-4.8-5.2,4.9-4.5Z"/><path id="path9789" class="cls-13" d="M157.8,286.8l4.6-4.7-4.9-4.7Z"/><path id="path9791" class="cls-8" d="M227.1,410.5c7.1-3.5,14.2-7.1,21.2-10.6,5.1-2.6,10.2-5,15.2-7.8,7.2-3.9,14.4-7.9,21.2-12.4,6.4-4.2,12.5-8.9,18.7-13.4-4.1-5.5-8.2-11.1-12.4-16.6-3.6-4.6-7.5-9.1-10.9-13.8-3.2-4.4-6.1-9-9.2-13.4a68.39,68.39,0,0,1-7.4,2.1,77.08,77.08,0,0,1-15.2.4,82.82,82.82,0,0,1-12-1.8,95.81,95.81,0,0,1-12.8-3.2,81.69,81.69,0,0,1-12.4-5.7,122.06,122.06,0,0,1-13.1-8.5,110.4,110.4,0,0,1-13.1-10.6c-3.9-3.9-6.9-8.4-10.3-12.8-3.6-4.7-6.8-9.8-10.6-14.5a118.37,118.37,0,0,0-8.1-9.2,83.25,83.25,0,0,0-13.1-10.6,72.88,72.88,0,0,0-14.1-6.7,73.23,73.23,0,0,0-14.5-4.3c-4.9-.7-9.9,0-14.8,0,2.7,5.6,5.6,11,8.1,16.6,3.1,7.1,6.1,14.2,8.5,21.6a184,184,0,0,1,5.7,20.9c1.5,7.2,2.4,14.6,3.2,21.9.6,5.5.9,11.1,1.1,16.6.2,6.1,0,12.3,0,18.4-.1,5.8-.1,11.6-.4,17.3-.2,6-.7,12-1.1,18"/><path id="path9793" class="cls-3" d="M30,150V510H300"/><path id="path9795" d="M187.9,269.5c-.7.1-1.4.7-2.8,1.7l-3.1,2.2-3.1,2.2c-3.9,2.3-2.8,2.6-.2,5.7l2.9,3.5,2.9,3.5c2.7,3.6,2.6,3.9,5.7,1l2.8-2.6,2.8-2.6c3.3-2.6,2.7-2.8.1-5.8l-2.6-3.2-2.7-3.2c-1.2-1.7-1.8-2.5-2.7-2.4Zm-.5,5.5a2.49,2.49,0,0,1,1.9.7,2.2,2.2,0,0,1,.4,1.3c0,.2-.3.5-.1.7s.4-.2.6-.2a1.87,1.87,0,0,1,1.4.5,2.64,2.64,0,0,1,.7,1.9,2.49,2.49,0,0,1-.7,1.9,2.3,2.3,0,0,1-1.4.4c-.2,0-.5-.3-.6-.1s.1.4.1.6a2.3,2.3,0,0,1-.4,1.4,2.81,2.81,0,0,1-1.9.7,2.64,2.64,0,0,1-1.9-.7,3.36,3.36,0,0,1-.5-1.4c0-.2.3-.5.2-.6s-.5.1-.7.1a1.84,1.84,0,0,1-1.3-.4,2.64,2.64,0,0,1-.7-1.9,2.49,2.49,0,0,1,.7-1.9,1.79,1.79,0,0,1,1.3-.5c.2,0,.5.3.7.2s-.2-.5-.2-.7a1.54,1.54,0,0,1,.5-1.3A2.64,2.64,0,0,1,187.4,275Z"/><path id="path9797" d="M201.4,285.2c-.6.1-1.3.9-2.5,2.1l-2.7,2.7-2.7,2.7c-3.5,2.9-2.3,3,.7,5.7l3.5,3,3.4,3c3.3,3.1,3.2,3.4,5.8,0l2.3-3,2.4-3c2.9-3.1,2.2-3.2-.8-5.7l-3.1-2.7-3.1-2.7c-1.6-1.6-2.3-2.3-3.2-2.1Zm.4,5.6a3.08,3.08,0,0,1,2.1.4,1.56,1.56,0,0,1,.6,1.2c.1.2-.2.5,0,.7s.4-.2.6-.2a2.2,2.2,0,0,1,1.4.2,2.65,2.65,0,0,1,1.1,1.8,2.71,2.71,0,0,1-.4,2,2.09,2.09,0,0,1-1.3.7c-.2,0-.5-.2-.6,0s.2.4.2.6a3.18,3.18,0,0,1-.2,1.4,2.65,2.65,0,0,1-1.8,1.1,2.71,2.71,0,0,1-2-.4,2.09,2.09,0,0,1-.7-1.3c0-.2.2-.5.1-.6s-.4.2-.6.2a2.2,2.2,0,0,1-1.4-.2,2.65,2.65,0,0,1-1.1-1.8,3.08,3.08,0,0,1,.4-2.1,2.13,2.13,0,0,1,1.2-.7c.2-.1.5.2.7,0s-.2-.4-.3-.6a3.18,3.18,0,0,1,.2-1.4,3.25,3.25,0,0,1,1.8-1Z"/><path id="path9799" d="M217.3,297.6c-.6.4-1,1.3-1.7,2.8l-1.7,3.4-1.7,3.4c-2.4,3.9-1.2,3.6,2.5,5.2l4.3,1.7,4.2,1.7c4.1,1.9,4.1,2.2,5.5-1.8l1.3-3.6,1.3-3.6c1.7-3.9,1.1-3.7-2.6-5.2l-3.8-1.5-3.8-1.6c-2.2-1-3.1-1.4-3.8-.9Zm2.1,5.1a2.56,2.56,0,0,1,2.1-.2c.5.1.8.6,1,1,.1.2,0,.6.2.6s.3-.3.5-.4a1.76,1.76,0,0,1,1.4-.2,2.93,2.93,0,0,1,1.6,1.3,2.23,2.23,0,0,1,.2,2.1c-.1.5-.6.8-1,1-.2.1-.6,0-.6.2s.3.3.4.5a2,2,0,0,1,.2,1.5,3.32,3.32,0,0,1-1.3,1.6,2.56,2.56,0,0,1-2.1.2c-.5-.1-.8-.6-1.1-1-.1-.2,0-.6-.1-.6s-.3.3-.5.4a1.7,1.7,0,0,1-1.4.2,2.62,2.62,0,0,1-1.6-1.3,2.56,2.56,0,0,1-.2-2.1c.1-.5.6-.8,1-1,.2-.1.6,0,.6-.2s-.4-.3-.5-.5a2.3,2.3,0,0,1-.2-1.4,3,3,0,0,1,1.4-1.7Z"/><path id="path9801" d="M236,305.4a7.1,7.1,0,0,0-.8,3.2l-.6,3.8-.6,3.8c-1.1,4.4-.1,3.8,3.9,4.2l4.6.4,4.6.4c4.4.6,4.5.9,4.7-3.4l.2-3.8.2-3.8c.5-4.2-.1-3.8-4-4.2l-4.1-.4-4.1-.4c-2.5-.3-3.4-.4-4,.2Zm3.5,4.3a2.36,2.36,0,0,1,1.9-.8,2.23,2.23,0,0,1,1.3.6c.1.1.1.5.4.5s.2-.4.4-.5a2.23,2.23,0,0,1,1.3-.6,2.73,2.73,0,0,1,1.9.8,2.84,2.84,0,0,1,.9,1.9c0,.5-.4.9-.7,1.3-.1.2-.5.1-.5.4s.4.2.5.4c.3.4.7.8.7,1.3a3.13,3.13,0,0,1-2.8,2.8,1.71,1.71,0,0,1-1.3-.7c-.2-.1-.1-.5-.4-.5s-.2.4-.4.5a3.29,3.29,0,0,1-1.3.7,3.13,3.13,0,0,1-2.8-2.8,2.23,2.23,0,0,1,.6-1.3c.2-.2.6-.1.6-.4s-.4-.2-.6-.4a2.23,2.23,0,0,1-.6-1.3A4.2,4.2,0,0,1,239.5,309.7Z"/><path id="path9803" d="M173.7,272.7a9.47,9.47,0,0,0,2.8-1.7l3.1-2.2,3.1-2.2c3.9-2.3,2.8-2.6.2-5.8l-2.9-3.5-2.9-3.5c-2.7-3.6-2.6-3.9-5.7-1l-2.8,2.6-2.8,2.6c-3.4,2.6-2.7,2.8-.1,5.8l2.6,3.2,2.7,3.2c1.2,1.8,1.8,2.6,2.7,2.5Zm.5-5.5a2.49,2.49,0,0,1-1.9-.7,2.2,2.2,0,0,1-.4-1.3c0-.2.2-.5.1-.6s-.4.2-.6.1a1.87,1.87,0,0,1-1.4-.5,2.64,2.64,0,0,1-.7-1.9,2.49,2.49,0,0,1,.7-1.9,2.3,2.3,0,0,1,1.4-.4c.2,0,.5.3.6.1s-.1-.4-.1-.6a2.3,2.3,0,0,1,.4-1.4,2.64,2.64,0,0,1,1.9-.7,2.49,2.49,0,0,1,1.9.7,1.87,1.87,0,0,1,.5,1.4c0,.2-.3.5-.2.6s.4-.1.7-.1a1.84,1.84,0,0,1,1.3.4,2.81,2.81,0,0,1,.7,1.9,2.49,2.49,0,0,1-.7,1.9,3.49,3.49,0,0,1-1.3.5c-.2,0-.5-.3-.7-.1s.2.4.2.6a1.54,1.54,0,0,1-.5,1.3A2.94,2.94,0,0,1,174.2,267.2Z"/><path id="path9805" d="M160.5,256.6a10.32,10.32,0,0,0,2.6-2.1l2.7-2.7,2.7-2.7c3.4-2.9,2.3-3-.8-5.7l-3.5-3-3.5-3c-3.2-3.1-3.1-3.4-5.8,0l-2.3,3-2.4,3c-2.9,3.1-2.2,3.2.8,5.7l3.1,2.7,3.2,2.7c1.6,1.7,2.4,2.4,3.2,2.1Zm-.4-5.5a2.71,2.71,0,0,1-2-.4,2.09,2.09,0,0,1-.7-1.3c0-.2.2-.5,0-.6s-.4.2-.6.2a3.18,3.18,0,0,1-1.4-.2,2.65,2.65,0,0,1-1.1-1.8,3.08,3.08,0,0,1,.4-2.1,2,2,0,0,1,1.3-.6c.2-.1.5.2.6,0s-.2-.4-.2-.6a1.94,1.94,0,0,1,.2-1.5,2.65,2.65,0,0,1,1.8-1.1,3.08,3.08,0,0,1,2.1.4,2.09,2.09,0,0,1,.7,1.3c0,.2-.2.5,0,.6s.4-.2.6-.2a1.7,1.7,0,0,1,1.4.2,2.65,2.65,0,0,1,1.1,1.8,2.71,2.71,0,0,1-.4,2,2.13,2.13,0,0,1-1.2.7c-.2,0-.6-.2-.7-.1s.2.4.2.6a2.2,2.2,0,0,1-.2,1.4,2.67,2.67,0,0,1-1.9,1.3Z"/><path id="path9807" d="M143.4,243c.6-.4,1-1.3,1.7-2.8l1.7-3.4,1.7-3.4c2.3-3.8,1.2-3.6-2.5-5.1l-4.3-1.7-4.3-1.8c-4-1.9-4-2.2-5.5,1.9l-1.3,3.6-1.3,3.6c-1.7,3.9-1.1,3.7,2.6,5.2l3.8,1.6,3.8,1.5C141.7,243.1,142.7,243.5,143.4,243Zm-2.2-5.1a2.56,2.56,0,0,1-2.1.2c-.5-.1-.8-.6-1-1-.1-.2,0-.6-.2-.6s-.3.4-.5.4a1.76,1.76,0,0,1-1.4.2,2.93,2.93,0,0,1-1.6-1.3,2.56,2.56,0,0,1-.2-2.1,2,2,0,0,1,1-1c.2-.1.5,0,.6-.2s-.3-.3-.4-.5a2.38,2.38,0,0,1-.3-1.4,3.11,3.11,0,0,1,1.4-1.6,2.56,2.56,0,0,1,2.1-.2c.5.1.8.6,1.1,1,.1.2-.1.5.1.6s.3-.3.5-.4a1.7,1.7,0,0,1,1.4-.2,2.93,2.93,0,0,1,1.6,1.3,2.56,2.56,0,0,1,.2,2.1,2.66,2.66,0,0,1-1,1.1c-.2.1-.6-.1-.6.2s.4.3.4.5a1.7,1.7,0,0,1,.2,1.4,2.39,2.39,0,0,1-1.3,1.5Z"/><path id="path9809" d="M124.7,235.1c.4-.5.5-1.5.8-3.2l.6-3.8.6-3.8c1.1-4.4.1-3.8-3.9-4.2l-4.6-.4-4.5-.4c-4.4-.6-4.5-.9-4.7,3.4l-.1,3.8-.2,3.8c-.5,4.2.1,3.9,4,4.2l4.1.4,4.1.4C123.1,235.6,124.2,235.7,124.7,235.1Zm-3.6-4.3a2.84,2.84,0,0,1-1.9.9,1.74,1.74,0,0,1-1.2-.6c-.2-.1-.2-.6-.4-.6s-.1.4-.3.6a2.23,2.23,0,0,1-1.3.6,2.84,2.84,0,0,1-1.9-.9,2.36,2.36,0,0,1-.8-1.9,2.23,2.23,0,0,1,.6-1.3c.1-.2.5-.1.5-.4s-.4-.2-.5-.4a3.29,3.29,0,0,1-.7-1.3,3.13,3.13,0,0,1,2.8-2.8,2,2,0,0,1,1.3.6c.1.1.1.6.3.6s.2-.4.4-.6a2,2,0,0,1,1.2-.6,2.84,2.84,0,0,1,1.9.9,2.36,2.36,0,0,1,.8,1.9,2.23,2.23,0,0,1-.6,1.3c-.1.2-.6.1-.6.4s.4.2.6.4a2.23,2.23,0,0,1,.6,1.3A2.36,2.36,0,0,1,121.1,230.8Z"/><path id="path9811" d="M261.3,306.1l-1.6.3c-2.1.2-3,.4-3.3,1.2a9.32,9.32,0,0,0,.1,3.3l.4,3.8.4,3.8c.1,4.5.8,3.7,4.4,3l4-.8,3.9-.7-1.9-3.3a2,2,0,0,1-.8.4,2.08,2.08,0,0,1-1.3-.3c-.2-.1-.2-.5-.4-.4s-.1.4-.2.6a1.5,1.5,0,0,1-1,.9,1.94,1.94,0,0,1-1.8-.3,3.53,3.53,0,0,1-1.2-1.7,2.2,2.2,0,0,1,.2-1.4c.1-.2.5-.2.4-.5s-.4-.1-.6-.2a1.55,1.55,0,0,1-.8-1.1,3,3,0,0,1,.3-2.1,2.91,2.91,0,0,1,1.4-1.3,1.68,1.68,0,0,1,1.2.3c.2.1.2.5.5.5l.1-.1-2.4-3.9Z"/><path id="path9813" d="M99.4,234.4l1.6-.3c2.1-.2,3-.4,3.3-1.2a11.41,11.41,0,0,0,0-3.3l-.4-3.8-.4-3.8c0-4.5-.8-3.7-4.4-3l-4,.8-3.9.7,1.9,3.3a2.51,2.51,0,0,1,.7-.4,2.08,2.08,0,0,1,1.3.3c.2.1.2.5.4.4s.1-.4.2-.6a1.5,1.5,0,0,1,1-.9,2.27,2.27,0,0,1,1.8.3,3.77,3.77,0,0,1,1.2,1.6,2.2,2.2,0,0,1-.2,1.4c-.1.2-.5.2-.4.5s.4.1.6.2a1.55,1.55,0,0,1,.8,1.1,2.77,2.77,0,0,1-.3,2,2.24,2.24,0,0,1-1.4,1.3,1.68,1.68,0,0,1-1.2-.3c-.2-.1-.2-.5-.5-.5l-.1.1,2.4,4.1Z"/><path id="path9815" d="M95,101c2,4,7,10,12,10,9,0,13-8,13-18s-4-19-13-19c-5,0-8,5-11,8-1,1-2,0-1-1,3-3,8-11,8-18,0-8-5-18-13-18S77,55,77,63c0,7,5,15,8,18,1,1,0,2-1,1-3-3-6-8-11-8-9,0-13,9-13,19s4,18,13,18c5,0,10-6,12-10,1-1,1,0,1,1-1,8-1,10-2,16s-4,17-4,17c5-2,15-2,20,0,0,0-3-11-4-17s-1-8-2-16C94,101,94,100,95,101Z"/><path id="path9817" d="M32.5,118c1,2,3.5,5,6,5,4.5,0,6.5-4,6.5-9s-2-9.5-6.5-9.5c-2.5,0-4,2.5-5.5,4-.5.5-1,0-.5-.5,1.5-1.5,4-5.5,4-9,0-4-2.5-9-6.5-9s-6.5,5-6.5,9c0,3.5,2.5,7.5,4,9,.5.5,0,1-.5.5-1.5-1.5-3-4-5.5-4C17,104.5,15,109,15,114s2,9,6.5,9c2.5,0,5-3,6-5,.5-.5.5,0,.5.5-.5,4-.5,5-1,8s-2,8.5-2,8.5a17,17,0,0,1,10,0s-1.5-5.5-2-8.5-.5-4-1-8C32,118,32,117.5,32.5,118Z"/><path id="path9819" d="M265,439c-2-4-7-10-12-10-9,0-13,8-13,18s4,19,13,19c5,0,8-5,11-8,1-1,2,0,1,1-3,3-8,11-8,18,0,8,5,18,13,18s13-10,13-18c0-7-5-15-8-18-1-1,0-2,1-1,3,3,6,8,11,8,9,0,13-9,13-19s-4-18-13-18c-5,0-10,6-12,10-1,1-1,0-1-1,1-8,1-10,2-16s4-17,4-17c-5,2-15,2-20,0,0,0,3,11,4,17s1,8,2,16C266,439,266,440,265,439Z"/><path id="path9821" d="M327.5,422c-1-2-3.5-5-6-5-4.5,0-6.5,4-6.5,9s2,9.5,6.5,9.5c2.5,0,4-2.5,5.5-4,.5-.5,1,0,.5.5-1.5,1.5-4,5.5-4,9,0,4,2.5,9,6.5,9s6.5-5,6.5-9c0-3.5-2.5-7.5-4-9-.5-.5,0-1,.5-.5,1.5,1.5,3,4,5.5,4,4.5,0,6.5-4.5,6.5-9.5s-2-9-6.5-9c-2.5,0-5,3-6,5-.5.5-.5,0-.5-.5.5-4,.5-5,1-8s2-8.5,2-8.5a17,17,0,0,1-10,0s1.5,5.5,2,8.5.5,4,1,8C328,422,328,422.5,327.5,422Z"/></g></g></g></svg>