<svg xmlns="http://www.w3.org/2000/svg" viewBox="0 0 359.9 539.9"><defs><style>.cls-1{fill:#fff;stroke:#000;}</style></defs><g id="Layer_2" data-name="Layer 2"><g id="svg2"><g id="g3033"><path id="rect6472-07" class="cls-1" d="M30.4.5H329.5a29.92,29.92,0,0,1,29.9,29.9V509.5a29.92,29.92,0,0,1-29.9,29.9H30.4A29.92,29.92,0,0,1,.5,509.5V30.4A29.92,29.92,0,0,1,30.4.5Z"/><path id="rect3163-52-9-8-1-38" d="M30,30A10,10,0,0,0,20,40v5h5V40a5,5,0,0,1,10,0v5a8.36,8.36,0,0,1-1,3.9C29.5,58,24.7,66,20,75v5H40V70H35v5H25.5C30,67.1,33.7,59.4,38,51.4A10.82,10.82,0,0,0,40,45V40A10,10,0,0,0,30,30Z"/><path id="rect3163-52-9-8-1-38-8" d="M330,510a10,10,0,0,0,10-10v-5h-5v5a5,5,0,0,1-10,0v-5a8.36,8.36,0,0,1,1-3.9c4.5-9.1,9.3-17.1,14-26.1v-5H320v10h5v-5h9.5c-4.5,7.9-8.2,15.6-12.5,23.6a10.82,10.82,0,0,0-2,6.4v5A10,10,0,0,0,330,510Z"/><path id="path3037-7-4-0" d="M32.5,118c.5,2,2.5,7,6,7,4.5,0,6.5-4,6.5-9,0-3.5-1.3-5.8-2.5-8.5a51,51,0,0,0-5-8C35.2,96.2,30,90,30,90s-5.2,6.2-7.5,9.5a51,51,0,0,0-5,8c-1.2,2.7-2.5,5-2.5,8.5,0,5,2,9,6.5,9,3.5,0,5.5-5,6-7,.5-.5.5,0,.5.5-.5,4-.5,5-1,8s-2,8.5-2,8.5a17,17,0,0,1,10,0s-1.5-5.5-2-8.5-.5-4-1-8C32,118,32,117.5,32.5,118Z"/><path id="path3037-7-4-1-3" d="M332.5,422c.5-2,2.5-7,6-7,4.5,0,6.5,4,6.5,9,0,3.5-1.3,5.8-2.5,8.5a51,51,0,0,1-5,8c-2.3,3.3-7.5,9.5-7.5,9.5s-5.2-6.2-7.5-9.5a51,51,0,0,1-5-8c-1.2-2.7-2.5-5-2.5-8.5,0-5,2-9,6.5-9,3.5,0,5.5,5,6,7,.5.5.5,0,.5-.5-.5-4-.5-5-1-8s-2-8.5-2-8.5a17,17,0,0,0,10,0s-1.5,5.5-2,8.5-.5,4-1,8C332,422,332,422.5,332.5,422Z"/><path id="path3037-7-40" d="M185,101c1,4,5,14,12,14,9,0,13-8,13-18,0-7-2.6-11.6-5-17-2.6-5.7-6.4-10.9-10-16-4.6-6.6-15-19-15-19s-10.4,12.4-15,19c-3.6,5.1-7.4,10.3-10,16-2.4,5.4-5,10-5,17,0,10,4,18,13,18,7,0,11-10,12-14,1-1,1,0,1,1-1,8-1,10-2,16s-4,17-4,17c5-2,15-2,20,0,0,0-3-11-4-17s-1-8-2-16C184,101,184,100,185,101Z"/><path id="path3037-7-7-0" d="M185,439c1-4,5-14,12-14,9,0,13,8,13,18,0,7-2.6,11.6-5,17-2.6,5.7-6.4,10.9-10,16-4.6,6.6-15,19-15,19s-10.4-12.4-15-19c-3.6-5.1-7.4-10.3-10-16-2.4-5.4-5-10-5-17,0-10,4-18,13-18,7,0,11,10,12,14,1,1,1,0,1-1-1-8-1-10-2-16s-4-17-4-17c5,2,15,2,20,0,0,0-3,11-4,17s-1,8-2,16C184,439,184,440,185,439Z"/></g></g></g></svg>