<svg xmlns="http://www.w3.org/2000/svg" viewBox="0 0 359.9 539.9"><defs><style>.cls-1{fill:#fff;stroke:#000;}</style></defs><g id="Layer_2" data-name="Layer 2"><g id="svg2"><g id="g3079"><path id="rect6472-2" class="cls-1" d="M30.4.5H329.5a29.92,29.92,0,0,1,29.9,29.9V509.5a29.92,29.92,0,0,1-29.9,29.9H30.4A29.92,29.92,0,0,1,.5,509.5V30.4A29.92,29.92,0,0,1,30.4.5Z"/><path id="rect3980-7-6-2-9-9-2" d="M30,30,20,65v5H32V80h5V70h3V65H37V50H32V65H25.2l10-35Z"/><path id="rect3980-7-6-2-9-9-8-2" d="M330,510l10-35v-5H328V460h-5v10h-3v5h3v15h5V475h6.8l-10,35Z"/><path id="path3037-7-4-7-6" d="M32.5,118c.5,2,2.5,7,6,7,4.5,0,6.5-4,6.5-9,0-3.5-1.3-5.8-2.5-8.5a51,51,0,0,0-5-8C35.2,96.2,30,90,30,90s-5.2,6.2-7.5,9.5a51,51,0,0,0-5,8c-1.2,2.7-2.5,5-2.5,8.5,0,5,2,9,6.5,9,3.5,0,5.5-5,6-7,.5-.5.5,0,.5.5-.5,4-.5,5-1,8s-2,8.5-2,8.5a17,17,0,0,1,10,0s-1.5-5.5-2-8.5-.5-4-1-8C32,118,32,117.5,32.5,118Z"/><path id="path3037-7-4-4-4" d="M332.5,422c.5-2,2.5-7,6-7,4.5,0,6.5,4,6.5,9,0,3.5-1.3,5.8-2.5,8.5a51,51,0,0,1-5,8c-2.3,3.3-7.5,9.5-7.5,9.5s-5.2-6.2-7.5-9.5a51,51,0,0,1-5-8c-1.2-2.7-2.5-5-2.5-8.5,0-5,2-9,6.5-9,3.5,0,5.5,5,6,7,.5.5.5,0,.5-.5-.5-4-.5-5-1-8s-2-8.5-2-8.5a17,17,0,0,0,10,0s-1.5,5.5-2,8.5-.5,4-1,8C332,422,332,422.5,332.5,422Z"/><g id="g3027"><path id="path3029" d="M95,101c1,4,5,14,12,14,9,0,13-8,13-18,0-7-2.6-11.6-5-17-2.6-5.7-6.4-10.9-10-16-4.6-6.6-15-19-15-19S79.6,57.36,75,64c-3.6,5.1-7.4,10.3-10,16-2.4,5.4-5,10-5,17,0,10,4,18,13,18,7,0,11-10,12-14,1-1,1,0,1,1-1,8-1,10-2,16s-4,17-4,17c5-2,15-2,20,0,0,0-3-11-4-17s-1-8-2-16C94,101,94,100,95,101Z"/></g><g id="g3041"><path id="path3043" d="M275,101c1,4,5,14,12,14,9,0,13-8,13-18,0-7-2.6-11.6-5-17-2.6-5.7-6.4-10.9-10-16-4.6-6.6-15-19-15-19s-10.4,12.4-15,19c-3.6,5.1-7.4,10.3-10,16-2.4,5.4-5,10-5,17,0,10,4,18,13,18,7,0,11-10,12-14,1-1,1,0,1,1-1,8-1,10-2,16s-4,17-4,17c5-2,15-2,20,0,0,0-3-11-4-17s-1-8-2-16C274,101,274,100,275,101Z"/></g><g id="g3055"><path id="path3057" d="M95,439c1-4,5-14,12-14,9,0,13,8,13,18,0,7-2.6,11.6-5,17-2.6,5.7-6.4,10.9-10,16-4.6,6.6-15,19-15,19s-10.4-12.4-15-19c-3.6-5.1-7.4-10.3-10-16-2.4-5.4-5-10-5-17,0-10,4-18,13-18,7,0,11,10,12,14,1,1,1,0,1-1-1-8-1-10-2-16s-4-17-4-17c5,2,15,2,20,0,0,0-3,11-4,17s-1,8-2,16C94,439,94,440,95,439Z"/></g><g id="g3069"><path id="path3071" d="M275,439c1-4,5-14,12-14,9,0,13,8,13,18,0,7-2.6,11.6-5,17-2.6,5.7-6.4,10.9-10,16-4.6,6.6-15,19-15,19s-10.4-12.4-15-19c-3.6-5.1-7.4-10.3-10-16-2.4-5.4-5-10-5-17,0-10,4-18,13-18,7,0,11,10,12,14,1,1,1,0,1-1-1-8-1-10-2-16s-4-17-4-17c5,2,15,2,20,0,0,0-3,11-4,17s-1,8-2,16C274,439,274,440,275,439Z"/></g></g></g></g></svg>