<svg xmlns="http://www.w3.org/2000/svg" viewBox="0 0 359.9 539.9"><defs><style>.cls-1{fill:#fff;stroke:#000;}</style></defs><g id="Layer_2" data-name="Layer 2"><g id="svg2"><g id="g3102"><path id="rect6472-66" class="cls-1" d="M30.4.5H329.5a29.92,29.92,0,0,1,29.9,29.9V509.5a29.92,29.92,0,0,1-29.9,29.9H30.4A29.92,29.92,0,0,1,.5,509.5V30.4A29.92,29.92,0,0,1,30.4.5Z"/><path id="rect3163-5-18-0-7" d="M30,30A10,10,0,0,0,20,40v5a9.83,9.83,0,0,0,3.4,7.5A9.83,9.83,0,0,0,20,60V70a10,10,0,0,0,20,0V60a9.83,9.83,0,0,0-3.4-7.5A9.83,9.83,0,0,0,40,45V40A10,10,0,0,0,30,30Zm0,5a5,5,0,0,1,5,5v5a5,5,0,0,1-10,0V40A5,5,0,0,1,30,35Zm0,20a5,5,0,0,1,5,5V70a5,5,0,0,1-10,0V60A5,5,0,0,1,30,55Z"/><path id="rect3163-5-18-0-7-4" d="M330,510a10,10,0,0,1-10-10v-5a9.83,9.83,0,0,1,3.4-7.5A9.83,9.83,0,0,1,320,480V470a10,10,0,0,1,20,0v10a9.83,9.83,0,0,1-3.4,7.5A9.83,9.83,0,0,1,340,495v5a10,10,0,0,1-10,10Zm0-5a5,5,0,0,0,5-5v-5a5,5,0,0,0-10,0v5A5,5,0,0,0,330,505Zm0-20a5,5,0,0,0,5-5V470a5,5,0,0,0-10,0v10A5,5,0,0,0,330,485Z"/><path id="path3037-7-4-7-1" d="M32.5,118c.5,2,2.5,7,6,7,4.5,0,6.5-4,6.5-9,0-3.5-1.3-5.8-2.5-8.5a51,51,0,0,0-5-8C35.2,96.2,30,90,30,90s-5.2,6.2-7.5,9.5a51,51,0,0,0-5,8c-1.2,2.7-2.5,5-2.5,8.5,0,5,2,9,6.5,9,3.5,0,5.5-5,6-7,.5-.5.5,0,.5.5-.5,4-.5,5-1,8s-2,8.5-2,8.5a17,17,0,0,1,10,0s-1.5-5.5-2-8.5-.5-4-1-8C32,118,32,117.5,32.5,118Z"/><path id="path3037-7-4-4-8" d="M332.5,422c.5-2,2.5-7,6-7,4.5,0,6.5,4,6.5,9,0,3.5-1.3,5.8-2.5,8.5a51,51,0,0,1-5,8c-2.3,3.3-7.5,9.5-7.5,9.5s-5.2-6.2-7.5-9.5a51,51,0,0,1-5-8c-1.2-2.7-2.5-5-2.5-8.5,0-5,2-9,6.5-9,3.5,0,5.5,5,6,7,.5.5.5,0,.5-.5-.5-4-.5-5-1-8s-2-8.5-2-8.5a17,17,0,0,0,10,0s-1.5,5.5-2,8.5-.5,4-1,8C332,422,332,422.5,332.5,422Z"/><path id="path3037-7-49" d="M95,101c1,4,5,14,12,14,9,0,13-8,13-18,0-7-2.6-11.6-5-17-2.6-5.7-6.4-10.9-10-16-4.6-6.6-15-19-15-19S79.6,57.4,75,64c-3.6,5.1-7.4,10.3-10,16-2.4,5.4-5,10-5,17,0,10,4,18,13,18,7,0,11-10,12-14,1-1,1,0,1,1-1,8-1,10-2,16s-4,17-4,17c5-2,15-2,20,0,0,0-3-11-4-17s-1-8-2-16C94,101,94,100,95,101Z"/><path id="path3037-7-09-6" d="M275,101c1,4,5,14,12,14,9,0,13-8,13-18,0-7-2.6-11.6-5-17-2.6-5.7-6.4-10.9-10-16-4.6-6.6-15-19-15-19s-10.4,12.4-15,19c-3.6,5.1-7.4,10.3-10,16-2.4,5.4-5,10-5,17,0,10,4,18,13,18,7,0,11-10,12-14,1-1,1,0,1,1-1,8-1,10-2,16s-4,17-4,17c5-2,15-2,20,0,0,0-3-11-4-17s-1-8-2-16C274,101,274,100,275,101Z"/><path id="path3037-7-4-3" d="M185,191c1,4,5,14,12,14,9,0,13-8,13-18,0-7-2.6-11.6-5-17-2.6-5.7-6.4-10.9-10-16-4.6-6.6-15-19-15-19s-10.4,12.4-15,19c-3.6,5.1-7.4,10.3-10,16-2.4,5.4-5,10-5,17,0,10,4,18,13,18,7,0,11-10,12-14,1-1,1,0,1,1-1,8-1,10-2,16s-4,17-4,17c5-2,15-2,20,0,0,0-3-11-4-17s-1-8-2-16C184,191,184,190,185,191Z"/><path id="path3037-7-8-7" d="M95,281c1,4,5,14,12,14,9,0,13-8,13-18,0-7-2.6-11.6-5-17-2.6-5.7-6.4-10.9-10-16-4.6-6.6-15-19-15-19s-10.4,12.4-15,19c-3.6,5.1-7.4,10.3-10,16-2.4,5.4-5,10-5,17,0,10,4,18,13,18,7,0,11-10,12-14,1-1,1,0,1,1-1,8-1,10-2,16s-4,17-4,17c5-2,15-2,20,0,0,0-3-11-4-17s-1-8-2-16C94,281,94,280,95,281Z"/><path id="path3037-7-82-8" d="M275,281c1,4,5,14,12,14,9,0,13-8,13-18,0-7-2.6-11.6-5-17-2.6-5.7-6.4-10.9-10-16-4.6-6.6-15-19-15-19s-10.4,12.4-15,19c-3.6,5.1-7.4,10.3-10,16-2.4,5.4-5,10-5,17,0,10,4,18,13,18,7,0,11-10,12-14,1-1,1,0,1,1-1,8-1,10-2,16s-4,17-4,17c5-2,15-2,20,0,0,0-3-11-4-17s-1-8-2-16C274,281,274,280,275,281Z"/><path id="path3037-7-45-8" d="M185,349c1-4,5-14,12-14,9,0,13,8,13,18,0,7-2.6,11.6-5,17-2.6,5.7-6.4,10.9-10,16-4.6,6.6-15,19-15,19s-10.4-12.4-15-19c-3.6-5.1-7.4-10.3-10-16-2.4-5.4-5-10-5-17,0-10,4-18,13-18,7,0,11,10,12,14,1,1,1,0,1-1-1-8-1-10-2-16s-4-17-4-17c5,2,15,2,20,0,0,0-3,11-4,17s-1,8-2,16C184,349,184,350,185,349Z"/><path id="path3037-7-5-2" d="M95,439c1-4,5-14,12-14,9,0,13,8,13,18,0,7-2.6,11.6-5,17-2.6,5.7-6.4,10.9-10,16-4.6,6.6-15,19-15,19s-10.4-12.4-15-19c-3.6-5.1-7.4-10.3-10-16-2.4-5.4-5-10-5-17,0-10,4-18,13-18,7,0,11,10,12,14,1,1,1,0,1-1-1-8-1-10-2-16s-4-17-4-17c5,2,15,2,20,0,0,0-3,11-4,17s-1,8-2,16C94,439,94,440,95,439Z"/><path id="path3037-7-1-9" d="M275,439c1-4,5-14,12-14,9,0,13,8,13,18,0,7-2.6,11.6-5,17-2.6,5.7-6.4,10.9-10,16-4.6,6.6-15,19-15,19s-10.4-12.4-15-19c-3.6-5.1-7.4-10.3-10-16-2.4-5.4-5-10-5-17,0-10,4-18,13-18,7,0,11,10,12,14,1,1,1,0,1-1-1-8-1-10-2-16s-4-17-4-17c5,2,15,2,20,0,0,0-3,11-4,17s-1,8-2,16C274,439,274,440,275,439Z"/></g></g></g></svg>