<svg xmlns="http://www.w3.org/2000/svg" viewBox="0 0 359.9 539.9"><defs><style>.cls-1{fill:#fff;stroke:#000;}</style></defs><g id="Layer_2" data-name="Layer 2"><g id="svg2"><g id="g3089"><path id="rect6472-68" class="cls-1" d="M30.4.5H329.5a29.92,29.92,0,0,1,29.9,29.9V509.5a29.92,29.92,0,0,1-29.9,29.9H30.4A29.92,29.92,0,0,1,.5,509.5V30.4A29.92,29.92,0,0,1,30.4.5Z"/><path id="rect3163-7-1-7-3-0-78" d="M30,80A10,10,0,0,0,40,70V40a10,10,0,0,0-20,0V50A10,10,0,0,0,30,60a10.63,10.63,0,0,0,5-1.3V70a5,5,0,0,1-10,0V69H20v1A10,10,0,0,0,30,80Zm0-25a5,5,0,0,1-5-5V40a5,5,0,0,1,10,0V50A5,5,0,0,1,30,55Z"/><path id="rect3163-7-1-7-3-0-78-1" d="M330,460a10,10,0,0,0-10,10v30a10,10,0,0,0,20,0V490a10,10,0,0,0-10-10,10.63,10.63,0,0,0-5,1.3V470a5,5,0,0,1,10,0v1h5v-1A10,10,0,0,0,330,460Zm0,25a5,5,0,0,1,5,5v10a5,5,0,0,1-10,0V490A5,5,0,0,1,330,485Z"/><path id="path3037-7-4-1" d="M32.5,118c.5,2,2.5,7,6,7,4.5,0,6.5-4,6.5-9,0-3.5-1.3-5.8-2.5-8.5a51,51,0,0,0-5-8C35.2,96.2,30,90,30,90s-5.2,6.2-7.5,9.5a51,51,0,0,0-5,8c-1.2,2.7-2.5,5-2.5,8.5,0,5,2,9,6.5,9,3.5,0,5.5-5,6-7,.5-.5.5,0,.5.5-.5,4-.5,5-1,8s-2,8.5-2,8.5a17,17,0,0,1,10,0s-1.5-5.5-2-8.5-.5-4-1-8C32,118,32,117.5,32.5,118Z"/><path id="path3037-7-4-7-5" d="M332.5,422c.5-2,2.5-7,6-7,4.5,0,6.5,4,6.5,9,0,3.5-1.3,5.8-2.5,8.5a51,51,0,0,1-5,8c-2.3,3.3-7.5,9.5-7.5,9.5s-5.2-6.2-7.5-9.5a51,51,0,0,1-5-8c-1.2-2.7-2.5-5-2.5-8.5,0-5,2-9,6.5-9,3.5,0,5.5,5,6,7,.5.5.5,0,.5-.5-.5-4-.5-5-1-8s-2-8.5-2-8.5a17,17,0,0,0,10,0s-1.5,5.5-2,8.5-.5,4-1,8C332,422,332,422.5,332.5,422Z"/><path id="path3037-7-76" d="M95,101c1,4,5,14,12,14,9,0,13-8,13-18,0-7-2.6-11.6-5-17-2.6-5.7-6.4-10.9-10-16-4.6-6.6-15-19-15-19S79.6,57.4,75,64c-3.6,5.1-7.4,10.3-10,16-2.4,5.4-5,10-5,17,0,10,4,18,13,18,7,0,11-10,12-14,1-1,1,0,1,1-1,8-1,10-2,16s-4,17-4,17c5-2,15-2,20,0,0,0-3-11-4-17s-1-8-2-16C94,101,94,100,95,101Z"/><path id="path3037-7-4-18" d="M275,101c1,4,5,14,12,14,9,0,13-8,13-18,0-7-2.6-11.6-5-17-2.6-5.7-6.4-10.9-10-16-4.6-6.6-15-19-15-19s-10.4,12.4-15,19c-3.6,5.1-7.4,10.3-10,16-2.4,5.4-5,10-5,17,0,10,4,18,13,18,7,0,11-10,12-14,1-1,1,0,1,1-1,8-1,10-2,16s-4,17-4,17c5-2,15-2,20,0,0,0-3-11-4-17s-1-8-2-16C274,101,274,100,275,101Z"/><path id="path3037-7-09-9" d="M95,221c1,4,5,14,12,14,9,0,13-8,13-18,0-7-2.6-11.6-5-17-2.6-5.7-6.4-10.9-10-16-4.6-6.6-15-19-15-19s-10.4,12.4-15,19c-3.6,5.1-7.4,10.3-10,16-2.4,5.4-5,10-5,17,0,10,4,18,13,18,7,0,11-10,12-14,1-1,1,0,1,1-1,8-1,10-2,16s-4,17-4,17c5-2,15-2,20,0,0,0-3-11-4-17s-1-8-2-16C94,221,94,220,95,221Z"/><path id="path3037-7-48" d="M275,221c1,4,5,14,12,14,9,0,13-8,13-18,0-7-2.6-11.6-5-17-2.6-5.7-6.4-10.9-10-16-4.6-6.6-15-19-15-19s-10.4,12.4-15,19c-3.6,5.1-7.4,10.3-10,16-2.4,5.4-5,10-5,17,0,10,4,18,13,18,7,0,11-10,12-14,1-1,1,0,1,1-1,8-1,10-2,16s-4,17-4,17c5-2,15-2,20,0,0,0-3-11-4-17s-1-8-2-16C274,221,274,220,275,221Z"/><path id="path3037-7-8-2" d="M185,281c1,4,5,14,12,14,9,0,13-8,13-18,0-7-2.6-11.6-5-17-2.6-5.7-6.4-10.9-10-16-4.6-6.6-15-19-15-19s-10.4,12.4-15,19c-3.6,5.1-7.4,10.3-10,16-2.4,5.4-5,10-5,17,0,10,4,18,13,18,7,0,11-10,12-14,1-1,1,0,1,1-1,8-1,10-2,16s-4,17-4,17c5-2,15-2,20,0,0,0-3-11-4-17s-1-8-2-16C184,281,184,280,185,281Z"/><path id="path3037-7-2-7" d="M95,319c1-4,5-14,12-14,9,0,13,8,13,18,0,7-2.6,11.6-5,17-2.6,5.7-6.4,10.9-10,16-4.6,6.6-15,19-15,19s-10.4-12.4-15-19c-3.6-5.1-7.4-10.3-10-16-2.4-5.4-5-10-5-17,0-10,4-18,13-18,7,0,11,10,12,14,1,1,1,0,1-1-1-8-1-10-2-16s-4-17-4-17c5,2,15,2,20,0,0,0-3,11-4,17s-1,8-2,16C94,319,94,320,95,319Z"/><path id="path3037-7-45-9" d="M275,319c1-4,5-14,12-14,9,0,13,8,13,18,0,7-2.6,11.6-5,17-2.6,5.7-6.4,10.9-10,16-4.6,6.6-15,19-15,19s-10.4-12.4-15-19c-3.6-5.1-7.4-10.3-10-16-2.4-5.4-5-10-5-17,0-10,4-18,13-18,7,0,11,10,12,14,1,1,1,0,1-1-1-8-1-10-2-16s-4-17-4-17c5,2,15,2,20,0,0,0-3,11-4,17s-1,8-2,16C274,319,274,320,275,319Z"/><path id="path3037-7-5-5" d="M95,439c1-4,5-14,12-14,9,0,13,8,13,18,0,7-2.6,11.6-5,17-2.6,5.7-6.4,10.9-10,16-4.6,6.6-15,19-15,19s-10.4-12.4-15-19c-3.6-5.1-7.4-10.3-10-16-2.4-5.4-5-10-5-17,0-10,4-18,13-18,7,0,11,10,12,14,1,1,1,0,1-1-1-8-1-10-2-16s-4-17-4-17c5,2,15,2,20,0,0,0-3,11-4,17s-1,8-2,16C94,439,94,440,95,439Z"/><path id="path3037-7-1-4" d="M275,439c1-4,5-14,12-14,9,0,13,8,13,18,0,7-2.6,11.6-5,17-2.6,5.7-6.4,10.9-10,16-4.6,6.6-15,19-15,19s-10.4-12.4-15-19c-3.6-5.1-7.4-10.3-10-16-2.4-5.4-5-10-5-17,0-10,4-18,13-18,7,0,11,10,12,14,1,1,1,0,1-1-1-8-1-10-2-16s-4-17-4-17c5,2,15,2,20,0,0,0-3,11-4,17s-1,8-2,16C274,439,274,440,275,439Z"/></g></g></g></svg>